<svg width="184" height="137" viewBox="0 0 184 137" fill="none" xmlns="http://www.w3.org/2000/svg">
<path d="M7.88013 110.318V121.538H22.5731H38.7774V110.318H7.88013Z" fill="#F5F5F5"/>
<path d="M6.58472 107.18V110.318H39.8568V107.18H22.5731H6.58472Z" fill="#E0E0E0"/>
<path d="M23.2208 121.538H38.7774V110.318H39.8569V107.18H22.5731V110.027L23.2208 121.538Z" fill="#E0E0E0"/>
<path d="M18.4687 112.126H12.2029V113.814H18.4687V112.126Z" fill="#E0E0E0"/>
<path d="M19.4402 115.927H11.3958V119.494H19.4402V115.927Z" fill="white"/>
<path d="M12.6346 95.9739V107.194H27.3252H43.5295V95.9739H12.6346Z" fill="#F5F5F5"/>
<path d="M11.3368 92.8367V95.974H44.6114V92.8367H27.3252H11.3368Z" fill="#E0E0E0"/>
<path d="M27.9729 107.194H43.5295V95.974H44.6114V92.8367H27.3252V95.6835L27.9729 107.194Z" fill="#E0E0E0"/>
<path d="M23.2208 97.7822H16.955V99.4701H23.2208V97.7822Z" fill="#E0E0E0"/>
<path d="M24.1923 101.585H16.1478V105.153H24.1923V101.585Z" fill="white"/>
<path d="M31.6333 10.5078H8.75842V47.5389H31.6333V10.5078Z" fill="#E0E0E0"/>
<path d="M30.4851 10.5078H7.61023V47.5389H30.4851V10.5078Z" fill="#F5F5F5"/>
<path d="M27.6441 14.5193H10.4536V43.5277H27.6441V14.5193Z" fill="white"/>
<path d="M27.6442 43.5275C27.6442 43.5275 27.6442 43.4782 27.6442 43.385C27.6442 43.2919 27.6442 43.1521 27.6442 42.974C27.6442 42.6096 27.6442 42.0753 27.6442 41.3821C27.6442 39.9929 27.6442 37.9653 27.6294 35.4062C27.6294 30.2933 27.6123 23.0488 27.6025 14.5191L27.6589 14.5822H10.4708L10.5322 14.5137C10.5322 25.4572 10.5322 35.5459 10.5322 43.522L10.4831 43.4672L22.9951 43.4946L26.4518 43.5083H27.3596C27.5657 43.5083 27.6736 43.5083 27.6736 43.5083H27.3694H26.4715H23.0368L10.4929 43.5385H10.4438V43.4837C10.4438 35.5075 10.4438 25.4189 10.4438 14.4753V14.4041H10.5076H27.6957H27.7521V14.5219C27.7521 23.0679 27.7325 30.3262 27.7251 35.4527C27.7251 38.0037 27.7251 40.0258 27.708 41.4122C27.708 42.1 27.708 42.6288 27.708 42.9905C27.708 43.1658 27.708 43.3028 27.708 43.396C27.708 43.4892 27.6442 43.5275 27.6442 43.5275Z" fill="#E0E0E0"/>
<path d="M30.5513 10.5078C30.4327 10.742 30.2955 10.9639 30.1416 11.1709C29.8767 11.5655 29.4989 12.1052 29.0695 12.6889C28.6402 13.2725 28.2354 13.7849 27.9385 14.1575C27.79 14.3646 27.6258 14.5571 27.4479 14.7329C27.5766 14.5063 27.7227 14.2927 27.8846 14.0945L28.9738 12.6039L30.0729 11.1106C30.217 10.895 30.377 10.6934 30.5513 10.5078Z" fill="#E0E0E0"/>
<path d="M27.7227 43.4343C28.5769 44.9521 29.5827 46.3567 30.7206 47.621L27.7227 43.4343Z" fill="white"/>
<path d="M30.7304 47.6212C30.5391 47.4661 30.3638 47.2879 30.2078 47.0896C29.4104 46.1807 28.6977 45.1837 28.0808 44.114C27.9431 43.9002 27.8263 43.6705 27.7324 43.429C27.8866 43.6273 28.0276 43.838 28.1544 44.0592C28.3997 44.4537 28.7604 44.9962 29.1725 45.5744C29.5847 46.1525 29.9821 46.6704 30.2716 47.0184C30.4371 47.2069 30.5905 47.4083 30.7304 47.6212Z" fill="#E0E0E0"/>
<path d="M7.60535 47.5088L10.6009 43.3796L7.60535 47.5088Z" fill="white"/>
<path d="M10.6033 43.3796C10.1545 44.11 9.6713 44.8134 9.15585 45.4867C8.67125 46.1907 8.15369 46.8657 7.60535 47.5088C8.05558 46.7788 8.53954 46.0755 9.05527 45.4018C9.53951 44.6982 10.0562 44.0232 10.6033 43.3796Z" fill="#E0E0E0"/>
<path d="M7.60535 10.5078C8.12806 11.1242 8.6195 11.7728 9.07735 12.4505C9.56322 13.0974 10.0162 13.7744 10.434 14.4781C9.91803 13.8603 9.43238 13.2118 8.97921 12.5354C8.48937 11.8873 8.03076 11.2104 7.60535 10.5078Z" fill="#E0E0E0"/>
<path d="M22.2885 20.4075H16.533V38.6614H22.2885V20.4075Z" fill="#E0E0E0"/>
<path d="M155.051 117.614C154.511 117.096 153.304 115.455 154.234 113.545C154.575 112.844 155.301 112.499 155.951 112.189C156.601 111.88 157.295 111.614 157.84 111.093C158.863 110.12 159.145 108.504 159.825 107.208C160.605 105.717 162.06 104.602 163.598 104.679C165.36 104.769 166.829 106.375 167.494 108.208C168.159 110.041 168.183 112.074 168.198 114.052C168.198 115.148 168.161 116.379 167.442 117.118C166.78 117.801 165.782 117.809 164.884 117.776L155.257 117.447" fill="#F5F5F5"/>
<path d="M173.463 88.0525H148.147L152.708 118.42C152.802 119.053 153.055 119.643 153.437 120.122C153.82 120.601 154.317 120.948 154.869 121.124L154.957 121.152C155.033 121.171 155.105 121.201 155.183 121.215C155.353 121.253 155.525 121.275 155.698 121.28V121.311L155.823 121.289H167.109C167.317 121.288 167.525 121.265 167.729 121.22C168.388 121.106 168.994 120.754 169.457 120.218C169.919 119.682 170.211 118.992 170.288 118.253L172.496 97.3274L172.594 96.5054H172.582L173.451 88.2087L173.463 88.0525ZM168.686 107.422H166.091L166.353 98.6097H169.363L168.686 107.422ZM169.614 98.6097H172.101L171.174 107.422H168.939L169.614 98.6097ZM162.192 117.192L162.033 109.537H165.774L165.546 117.192H162.192ZM158.147 109.537H161.783L161.94 117.192H158.679L158.147 109.537ZM158.426 117.192H155.379C155.09 115.126 154.712 112.438 154.305 109.537H157.894L158.426 117.192ZM157.995 107.422L157.381 98.6097H161.552L161.734 107.422H157.995ZM161.984 107.422L161.802 98.6097H166.091L165.845 107.422H161.984ZM161.761 96.4944L161.591 88.3347H166.4L166.154 96.4944H161.761ZM161.515 96.4944H157.239L156.672 88.3347H161.334L161.515 96.4944ZM156.989 96.4944H152.465C152.305 95.3683 152.153 94.3024 152.016 93.3407C151.545 90.0527 151.368 88.8005 151.28 88.3347H156.432L156.989 96.4944ZM157.136 98.6097L157.749 107.422H154.008C153.883 106.528 153.763 105.624 153.628 104.72C153.333 102.638 153.041 100.558 152.764 98.6097H157.136ZM153.755 107.422H151.302L149.977 98.6097H152.502C152.897 101.333 153.333 104.364 153.753 107.422H153.755ZM154.055 109.537C154.425 112.186 154.791 114.798 155.127 117.192H152.781L151.631 109.537H154.055ZM165.801 117.192L166.029 109.537H168.527L167.943 117.192H165.801ZM166.417 96.4944L166.662 88.3347H170.151L169.525 96.4944H166.417ZM151.032 88.3347C151.133 88.9238 151.594 92.1351 152.212 96.4944H149.67L148.444 88.3347H151.032ZM170.151 117.192H168.188L168.789 109.537H170.965L170.151 117.192ZM172.325 96.4944H169.771L170.394 88.3347H173.181L172.325 96.4944Z" fill="#E0E0E0"/>
<path d="M174.027 12.4915V37.357H142.05L140.897 12.6668L174.027 12.4915Z" fill="#E0E0E0"/>
<path d="M140.897 12.6669V37.3049H172.874V12.6669L140.897 12.6669Z" fill="white"/>
<path d="M173.026 37.4749H140.745V12.4971H173.026V37.4749ZM141.049 37.1351H172.715V12.8368H141.049V37.1351Z" fill="#E0E0E0"/>
<path d="M169.41 15.7275H144.361V34.2445H169.41V15.7275Z" fill="white"/>
<path d="M169.41 15.7275H169.287H168.932H167.555L162.403 15.7494L144.371 15.7905L144.442 15.7083C144.442 21.3664 144.442 27.6355 144.442 34.2225L144.364 34.1348L169.412 34.1513L169.351 34.2225C169.363 28.5863 169.376 23.9667 169.383 20.7499C169.383 19.1415 169.395 17.8866 169.4 17.0235C169.4 16.5979 169.4 16.2718 169.4 16.0453C169.4 15.8234 169.4 15.7056 169.4 15.7056C169.4 15.7056 169.4 15.8124 169.4 16.0316C169.4 16.2508 169.4 16.5796 169.4 16.9961C169.4 17.8537 169.4 19.1059 169.415 20.7061C169.415 23.9338 169.435 28.5699 169.449 34.2225V34.2937H169.385L144.337 34.3102H144.258V34.2499C144.258 27.6739 144.258 21.3938 144.258 15.7357V15.6562H144.332L162.411 15.6946L167.563 15.7165H168.924H169.27L169.41 15.7275Z" fill="#E0E0E0"/>
<path d="M140.897 12.604C141.094 12.7106 141.279 12.844 141.447 13.0013C141.776 13.2753 142.22 13.6397 142.7 14.0699C143.181 14.5001 143.606 14.9056 143.903 15.2097C144.075 15.3616 144.229 15.5374 144.361 15.7331C144.332 15.7714 143.562 15.0618 142.602 14.2069C141.643 13.352 140.87 12.6369 140.897 12.604Z" fill="#E0E0E0"/>
<path d="M172.874 12.6669C172.901 12.7053 172.138 13.4204 171.191 14.2671C170.244 15.1137 169.437 15.7658 169.41 15.7275C169.383 15.6891 170.146 14.974 171.093 14.1273C172.04 13.2807 172.847 12.6285 172.874 12.6669Z" fill="#E0E0E0"/>
<path d="M172.85 37.3077L169.28 34.0828L172.85 37.3077Z" fill="white"/>
<path d="M169.28 34.0828C169.309 34.0445 170.129 34.7349 171.113 35.6254C172.096 36.5159 172.874 37.2694 172.847 37.3078C172.82 37.3462 171.998 36.6557 171.014 35.7624C170.031 34.8692 169.255 34.1184 169.28 34.0828Z" fill="#E0E0E0"/>
<path d="M140.897 37.305C140.87 37.2666 141.616 36.5569 142.563 35.7212C143.51 34.8855 144.298 34.2389 144.325 34.2773C144.352 34.3156 143.608 35.0253 142.661 35.861C141.714 36.6967 140.924 37.3433 140.897 37.305Z" fill="#E0E0E0"/>
<path d="M149.447 21.4952V27.6958H165.21V21.4952H149.447Z" fill="#E0E0E0"/>
<path d="M173.463 121.538C173.463 121.577 136.584 121.61 91.1021 121.61C45.6198 121.61 8.73389 121.577 8.73389 121.538C8.73389 121.5 45.605 121.467 91.1021 121.467C136.599 121.467 173.463 121.497 173.463 121.538Z" fill="#263238"/>
<path d="M28.9935 25.7561H153.809C154.248 25.7561 154.668 25.9507 154.979 26.297C155.289 26.6433 155.463 27.1131 155.463 27.6029V116.571C155.462 117.629 155.086 118.643 154.416 119.391C153.746 120.139 152.838 120.559 151.891 120.56H30.6667C29.7187 120.56 28.8095 120.139 28.1391 119.391C27.4688 118.642 27.0922 117.627 27.0922 116.568V27.8769C27.0928 27.3142 27.2934 26.7747 27.6499 26.3771C28.0064 25.9795 28.4897 25.7561 28.9935 25.7561Z" fill="#455A64"/>
<path d="M21.7242 113.551H160.804V118.094C160.804 119.091 160.449 120.047 159.818 120.752C159.187 121.457 158.33 121.853 157.438 121.853H25.0902C24.1975 121.853 23.3414 121.457 22.7101 120.752C22.0789 120.047 21.7242 119.091 21.7242 118.094V113.551Z" fill="#455A64"/>
<path d="M151.658 29.5181H30.5366V109.584H151.658V29.5181Z" fill="#F5F5F5"/>
<path d="M78.6219 113.551L80.3491 116.617H104.635L106.237 113.551H78.6219Z" fill="#263238"/>
<path d="M155.485 113.521H27.1118V113.979H155.485V113.521Z" fill="#263238"/>
<path d="M64.8318 25.756H51.4955V20.5062C51.4955 16.8044 54.1819 13.6726 57.4963 13.6726L64.8318 13.8014V25.756Z" fill="#E0E0E0"/>
<path d="M57.2094 13.6645C57.2094 13.6645 64.8 12.8946 64.8 23.9505V109.945H124.367V20.8241C124.367 19.8636 124.197 18.9125 123.867 18.0253C123.537 17.1382 123.054 16.3323 122.445 15.6538C121.836 14.9754 121.114 14.4376 120.319 14.0714C119.524 13.7051 118.672 13.5175 117.812 13.5193L57.2094 13.6645Z" fill="white"/>
<path d="M57.2092 13.6645L101.278 13.5055L111.95 13.4727L117.625 13.4535C118.619 13.423 119.607 13.6429 120.514 14.0968C121.422 14.5507 122.226 15.2271 122.868 16.0757C123.524 16.9492 123.99 17.9809 124.229 19.0897C124.292 19.3682 124.339 19.651 124.369 19.9363C124.404 20.2103 124.401 20.509 124.418 20.7967C124.418 21.3684 124.418 21.9438 124.418 22.5229C124.418 24.83 124.418 27.1745 124.418 29.5565C124.418 34.3149 124.418 39.2095 124.418 44.2401C124.418 64.3353 124.418 86.4361 124.418 109.617V110.017H124.355H64.7876H64.7287V109.951C64.7287 80.1779 64.7459 54.896 64.7532 37.0668C64.7532 32.6061 64.7532 28.6112 64.7532 25.1286C64.7532 24.2573 64.7533 23.4189 64.7091 22.616C64.6662 21.8456 64.571 21.0798 64.4245 20.3254C64.2836 19.6379 64.0882 18.9658 63.8406 18.317C63.6076 17.7375 63.3215 17.1866 62.9868 16.673C62.4137 15.8188 61.6791 15.1163 60.8353 14.6152C60.2187 14.251 59.5574 13.9907 58.8726 13.8426C58.4573 13.7483 58.0353 13.6951 57.6116 13.6836C57.327 13.6836 57.1798 13.6836 57.1798 13.6836C57.3236 13.6741 57.4678 13.6741 57.6116 13.6836C58.0366 13.6915 58.4602 13.741 58.8775 13.8316C59.562 13.9778 60.2234 14.2364 60.8402 14.5988C61.6899 15.0982 62.4298 15.8019 63.0065 16.6593C63.3441 17.1727 63.6335 17.7236 63.87 18.3033C64.1201 18.9547 64.3179 19.6295 64.4613 20.3199C64.6096 21.0769 64.7064 21.8454 64.7508 22.6188C64.8048 23.4243 64.7974 24.2628 64.7974 25.1341C64.7974 28.6166 64.7974 32.6116 64.7974 37.0723C64.7974 54.9124 64.8097 80.1944 64.8195 109.956L64.7606 109.893H124.328L124.264 109.964V109.636C124.264 86.4471 124.264 64.3545 124.264 44.2593C124.264 39.2341 124.264 34.3396 124.264 29.5756V22.5229C124.249 21.3693 124.34 20.2131 124.08 19.1171C123.856 18.0361 123.414 17.0267 122.787 16.1661C122.157 15.3307 121.367 14.6646 120.475 14.2173C119.583 13.77 118.612 13.5529 117.635 13.5823H111.948L101.259 13.6014L57.2092 13.6645Z" fill="#263238"/>
<path d="M90.2973 39.7629C90.2973 39.8012 86.6738 39.8341 82.2013 39.8341C77.7289 39.8341 74.1053 39.8012 74.1053 39.7629C74.1053 39.7245 77.7265 39.6917 82.2013 39.6917C86.6762 39.6917 90.2973 39.73 90.2973 39.7629Z" fill="#263238"/>
<path d="M93.9234 41.9221C93.9234 41.9632 89.4903 41.9933 84.0193 41.9933C78.5484 41.9933 74.1177 41.9632 74.1177 41.9221C74.1177 41.881 78.5509 41.8508 84.0193 41.8508C89.4878 41.8508 93.9234 41.8837 93.9234 41.9221Z" fill="#263238"/>
<path d="M95.2237 50.4299C95.2237 50.4682 90.6458 50.5011 84.9982 50.5011C79.3506 50.5011 74.7727 50.4682 74.7727 50.4299C74.7727 50.3915 79.3506 50.3586 84.9982 50.3586C90.6458 50.3586 95.2237 50.3888 95.2237 50.4299Z" fill="#263238"/>
<path d="M108.582 58.7209C108.582 58.7593 100.928 58.7921 91.4873 58.7921C82.0469 58.7921 74.3925 58.7593 74.3925 58.7209C74.3925 58.6825 82.0444 58.6497 91.4873 58.6497C100.93 58.6497 108.582 58.6798 108.582 58.7209Z" fill="#263238"/>
<path d="M108.582 61.1926C108.582 61.2337 100.928 61.2638 91.4873 61.2638C82.0469 61.2638 74.3925 61.2337 74.3925 61.1926C74.3925 61.1515 82.0444 61.1213 91.4873 61.1213C100.93 61.1213 108.582 61.1542 108.582 61.1926Z" fill="#263238"/>
<path d="M108.582 63.6667C108.582 63.7078 100.928 63.7379 91.4873 63.7379C82.0469 63.7379 74.3925 63.7078 74.3925 63.6667C74.3925 63.6256 82.0444 63.5955 91.4873 63.5955C100.93 63.5955 108.582 63.6283 108.582 63.6667Z" fill="#263238"/>
<path d="M108.582 66.1408C108.582 66.1792 100.928 66.2121 91.4873 66.2121C82.0469 66.2121 74.3925 66.1792 74.3925 66.1408C74.3925 66.1025 82.0444 66.0696 91.4873 66.0696C100.93 66.0696 108.582 66.1025 108.582 66.1408Z" fill="#263238"/>
<path d="M108.582 68.6152C108.582 68.6535 100.928 68.6864 91.4873 68.6864C82.0469 68.6864 74.3925 68.6535 74.3925 68.6152C74.3925 68.5768 82.0444 68.5439 91.4873 68.5439C100.93 68.5439 108.582 68.5741 108.582 68.6152Z" fill="#263238"/>
<path d="M87.3583 71.0893C87.3583 71.1277 84.4536 71.1605 80.8742 71.1605C77.2947 71.1605 74.3925 71.1277 74.3925 71.0893C74.3925 71.0509 77.2947 71.0181 80.8742 71.0181C84.4536 71.0181 87.3583 71.0482 87.3583 71.0893Z" fill="#263238"/>
<path d="M79.7849 26.9837C79.783 26.7716 79.8205 26.5614 79.895 26.3663C79.9695 26.1712 80.0793 25.9954 80.2176 25.85C80.3558 25.7045 80.5195 25.5927 80.6984 25.5214C80.8773 25.45 81.0674 25.4209 81.2569 25.4356C81.4727 25.4226 81.6883 25.4653 81.8869 25.5603C82.0856 25.6554 82.2621 25.8002 82.4026 25.9836L81.9242 26.4686C81.8505 26.3605 81.7555 26.2729 81.6466 26.2125C81.5377 26.1522 81.4177 26.1207 81.2961 26.1206C81.0944 26.1206 80.901 26.2101 80.7583 26.3694C80.6157 26.5287 80.5356 26.7447 80.5356 26.97C80.5356 27.1953 80.6157 27.4113 80.7583 27.5706C80.901 27.7299 81.0944 27.8194 81.2961 27.8194C81.4177 27.8193 81.5377 27.7879 81.6466 27.7275C81.7555 27.6671 81.8505 27.5795 81.9242 27.4714L82.4026 27.9537C82.2633 28.1396 82.0874 28.287 81.8886 28.3844C81.6899 28.4819 81.4737 28.5267 81.2569 28.5154C81.0686 28.53 80.8797 28.5013 80.7019 28.431C80.524 28.3607 80.361 28.2503 80.223 28.1066C80.0849 27.963 79.9748 27.7892 79.8994 27.596C79.8241 27.4028 79.7851 27.1944 79.7849 26.9837Z" fill="#263238"/>
<path d="M84.8657 27.8194V28.4687H82.7289V25.4958H84.8167V26.1452H83.4722V26.6466H84.6572V27.2768H83.4722V27.8248L84.8657 27.8194Z" fill="#263238"/>
<path d="M86.4482 27.6741H86.0385V28.4633H85.2853V25.4958H86.5119C87.2479 25.4958 87.6945 25.9151 87.6945 26.5918C87.7009 26.7884 87.6547 26.9827 87.5615 27.1497C87.4684 27.3167 87.3327 27.4487 87.1719 27.5289L87.7484 28.4633H86.9413L86.4482 27.6741ZM86.4482 26.1534H86.0311V27.0248H86.4482C86.7597 27.0248 86.9167 26.8631 86.9167 26.5918C86.9167 26.3206 86.7671 26.1589 86.4555 26.1589L86.4482 26.1534Z" fill="#263238"/>
<path d="M88.6266 26.1617H87.8097V25.4958H90.1943V26.1617H89.3798V28.4687H88.6266V26.1617Z" fill="#263238"/>
<path d="M90.4766 25.4958H91.2297V28.4687H90.4766V25.4958Z" fill="#263238"/>
<path d="M92.5201 26.1452V26.8001H93.6953V27.4495H92.5201V28.4687H91.767V25.4958H93.8548V26.1452H92.5201Z" fill="#263238"/>
<path d="M94.208 25.4958H94.9612V28.4687H94.208V25.4958Z" fill="#263238"/>
<path d="M95.3611 26.9835C95.3597 26.7715 95.3974 26.5615 95.472 26.3666C95.5466 26.1717 95.6564 25.996 95.7946 25.8507C95.9328 25.7054 96.0964 25.5935 96.2751 25.522C96.4538 25.4506 96.6438 25.4211 96.8331 25.4354C97.0486 25.4224 97.2638 25.4651 97.4621 25.5602C97.6604 25.6552 97.8364 25.8001 97.9764 25.9834L97.498 26.4684C97.4245 26.3602 97.3295 26.2724 97.2205 26.212C97.1116 26.1517 96.9916 26.1203 96.8699 26.1204C96.6682 26.1204 96.4748 26.2099 96.3321 26.3692C96.1895 26.5285 96.1094 26.7445 96.1094 26.9698C96.1094 27.1951 96.1895 27.4111 96.3321 27.5704C96.4748 27.7297 96.6682 27.8192 96.8699 27.8192C96.9916 27.8193 97.1116 27.788 97.2205 27.7276C97.3295 27.6672 97.4245 27.5795 97.498 27.4712L97.9764 27.9535C97.8376 28.1393 97.6621 28.2868 97.4638 28.3842C97.2654 28.4817 97.0496 28.5265 96.8331 28.5152C95.9818 28.5289 95.3611 27.8877 95.3611 26.9835Z" fill="#263238"/>
<path d="M100.042 27.8906H98.9185L98.7075 28.4687H97.9396L99.1147 25.4958H99.8507L101.028 28.4687H100.246L100.042 27.8906ZM99.8237 27.2714L99.4803 26.3206L99.1368 27.2714H99.8237Z" fill="#263238"/>
<path d="M101.683 26.1617H100.866V25.4958H103.251V26.1617H102.436V28.4687H101.683V26.1617Z" fill="#263238"/>
<path d="M103.531 25.4958H104.284V28.4687H103.531V25.4958Z" fill="#263238"/>
<path d="M104.684 26.9836C104.684 26.0904 105.312 25.4355 106.156 25.4355C107 25.4355 107.628 26.0904 107.628 26.9836C107.628 27.8769 107 28.529 106.156 28.529C105.312 28.529 104.684 27.8741 104.684 26.9836ZM106.892 26.9836C106.884 26.8272 106.835 26.6768 106.751 26.551C106.667 26.4253 106.552 26.3296 106.42 26.276C106.288 26.2223 106.145 26.2129 106.009 26.2489C105.872 26.285 105.748 26.3649 105.652 26.4788C105.555 26.5927 105.491 26.7356 105.466 26.89C105.442 27.0443 105.458 27.2033 105.514 27.3473C105.569 27.4913 105.661 27.614 105.778 27.7003C105.895 27.7866 106.033 27.8328 106.173 27.833C106.27 27.8329 106.367 27.8104 106.456 27.767C106.546 27.7235 106.626 27.6599 106.693 27.5803C106.759 27.5006 106.81 27.4066 106.843 27.3039C106.875 27.2013 106.889 27.0923 106.882 26.9836H106.892Z" fill="#263238"/>
<path d="M110.572 25.4958V28.4687H109.951L108.776 26.885V28.4687H108.04V25.4958H108.658L109.833 27.0796V25.4958H110.572Z" fill="#263238"/>
<path d="M113.589 81.5314C113.589 81.5698 110.194 81.6027 106.009 81.6027C101.823 81.6027 98.4253 81.5698 98.4253 81.5314C98.4253 81.4931 101.821 81.4602 106.009 81.4602C110.196 81.4602 113.589 81.4931 113.589 81.5314Z" fill="#263238"/>
<path d="M113.589 83.9207C113.589 83.9591 110.194 83.992 106.009 83.992C101.823 83.992 98.4253 83.9591 98.4253 83.9207C98.4253 83.8824 101.813 83.844 106.011 83.844C110.209 83.844 113.589 83.8824 113.589 83.9207Z" fill="#263238"/>
<path d="M112.584 94.3026C112.58 94.2625 112.58 94.2221 112.584 94.1821C112.584 94.0971 112.571 93.982 112.561 93.8341C112.561 93.7574 112.557 93.6724 112.547 93.5793C112.547 93.4834 112.52 93.382 112.505 93.2724C112.475 93.0169 112.428 92.7642 112.365 92.5161C112.21 91.8303 111.962 91.1751 111.629 90.5735C110.851 89.1191 109.643 88.0133 108.213 87.4467C106.783 86.88 105.221 86.888 103.796 87.4691C103.505 87.5862 103.221 87.7253 102.947 87.8855C102.669 88.0563 102.402 88.2476 102.147 88.4582C101.888 88.6738 101.642 88.9082 101.411 89.1596C101.182 89.4251 100.969 89.707 100.773 90.0036C100.368 90.6106 100.054 91.287 99.8434 92.0065C99.3951 93.4954 99.3951 95.1071 99.8434 96.596C100.054 97.3155 100.368 97.9919 100.773 98.5989C100.969 98.8955 101.182 99.1774 101.411 99.4429C101.642 99.6943 101.888 99.9286 102.147 100.144C102.648 100.568 103.204 100.902 103.796 101.136C104.889 101.579 106.067 101.69 107.211 101.457C108.122 101.266 108.987 100.863 109.748 100.272C110.509 99.6809 111.149 98.9165 111.627 98.029C111.96 97.4274 112.208 96.7722 112.363 96.0864C112.426 95.8384 112.472 95.5857 112.503 95.3301C112.517 95.2205 112.534 95.1191 112.544 95.026C112.554 94.9328 112.544 94.8451 112.559 94.7684C112.559 94.6205 112.576 94.4944 112.581 94.4204C112.577 94.3813 112.577 94.3418 112.581 94.3026C112.584 94.3418 112.584 94.3813 112.581 94.4204V94.7712C112.581 94.8479 112.581 94.9356 112.581 95.0287C112.581 95.1219 112.559 95.226 112.544 95.3383C112.52 95.5956 112.477 95.8502 112.417 96.1001C112.27 96.794 112.028 97.4585 111.7 98.0701C110.919 99.5529 109.699 100.684 108.249 101.266C106.8 101.849 105.214 101.846 103.766 101.259C103.469 101.141 103.18 101 102.9 100.838C102.616 100.665 102.344 100.47 102.086 100.254C101.82 100.036 101.567 99.7976 101.33 99.5415C101.097 99.2711 100.879 98.9837 100.68 98.6811C100.267 98.0626 99.9459 97.3732 99.7305 96.6398C99.2726 95.1227 99.2726 93.4798 99.7305 91.9627C99.9464 91.2295 100.267 90.5402 100.68 89.9214C100.879 89.619 101.098 89.3324 101.333 89.0637C101.569 88.8069 101.821 88.568 102.086 88.3486C102.83 87.7348 103.681 87.3026 104.585 87.0798C105.488 86.857 106.423 86.8486 107.33 87.0553C108.236 87.2619 109.094 87.679 109.847 88.2794C110.599 88.8798 111.231 89.6502 111.7 90.5406C112.028 91.1525 112.27 91.8169 112.417 92.5107C112.477 92.7614 112.52 93.017 112.544 93.2751C112.559 93.3875 112.574 93.4888 112.581 93.582C112.588 93.6752 112.581 93.7628 112.581 93.8423V94.1903C112.585 94.2276 112.586 94.2652 112.584 94.3026Z" fill="#407BFF"/>
<path d="M110.116 95.3896C110.656 92.8545 109.254 90.3106 106.984 89.7076C104.714 89.1046 102.436 90.6708 101.896 93.2059C101.356 95.741 102.759 98.285 105.028 98.888C107.298 99.491 109.576 97.9247 110.116 95.3896Z" fill="#407BFF"/>
<path d="M115.405 90.2393L115.228 90.3489L114.701 90.6612L112.672 91.8422L109.465 93.7081C109.139 93.8977 108.787 94.0237 108.423 94.0807C108.224 94.1085 108.023 94.0892 107.832 94.024C107.641 93.9589 107.464 93.8493 107.314 93.7026C107.154 93.548 107.04 93.3424 106.987 93.1135C106.957 92.9941 106.955 92.8682 106.979 92.7472C107.003 92.6262 107.054 92.5138 107.127 92.4203C107.28 92.2332 107.492 92.1194 107.719 92.1025C107.837 92.0845 107.958 92.1101 108.062 92.1753C108.167 92.2406 108.249 92.3419 108.298 92.4641V92.4833C108.304 93.2745 108.052 94.041 107.589 94.6397C107.346 94.9633 107.047 95.2277 106.71 95.4162C106.372 95.6048 106.003 95.7136 105.626 95.7357C105.228 95.7596 104.83 95.694 104.455 95.5429C104.081 95.3919 103.737 95.1583 103.445 94.8562C103.129 94.5468 102.909 94.1333 102.817 93.6752C102.774 93.4339 102.804 93.1838 102.9 92.9628C102.998 92.7366 103.168 92.5589 103.376 92.4641C103.484 92.4179 103.601 92.4029 103.715 92.4206C103.83 92.4383 103.939 92.4882 104.031 92.5655C104.208 92.723 104.337 92.9372 104.402 93.1793C104.472 93.4133 104.506 93.6587 104.502 93.9054C104.512 94.0275 104.512 94.1504 104.502 94.2725C104.497 94.396 104.483 94.5187 104.461 94.6397C104.288 95.6361 103.802 96.531 103.092 97.1632C102.733 97.4948 102.317 97.7392 101.869 97.8807C101.421 98.0223 100.952 98.0579 100.491 97.9852C99.5414 97.8075 98.6894 97.2286 98.1113 96.3686C97.7738 95.8865 97.5405 95.3239 97.4293 94.7246C97.3089 94.1291 97.3508 93.5069 97.5495 92.9382C97.6574 92.6536 97.8406 92.4127 98.0745 92.2477C98.3118 92.0839 98.595 92.0244 98.8694 92.0805C99.0037 92.1147 99.1296 92.1815 99.2382 92.2763C99.3467 92.371 99.4352 92.4913 99.4974 92.6285C99.6171 92.8881 99.7046 93.1646 99.7575 93.4505C99.9878 94.5582 99.9247 95.7168 99.5759 96.7851C99.2458 97.8137 98.6092 98.6844 97.7727 99.2511C96.9769 99.7931 96.0415 100.022 95.1158 99.9005C94.674 99.8405 94.2467 99.6861 93.8572 99.4457C93.4803 99.2084 93.1473 98.8931 92.8759 98.5168C92.3517 97.8092 92.0646 96.9198 92.0638 96.0015C92.0718 95.5693 92.1552 95.1431 92.3092 94.7466C92.3752 94.5503 92.4769 94.3713 92.6078 94.2209C92.7386 94.0705 92.8959 93.9519 93.0697 93.8725C93.2464 93.811 93.4349 93.8053 93.6143 93.8561C93.7828 93.9179 93.9364 94.0219 94.0633 94.1602C94.2999 94.4266 94.4772 94.7513 94.581 95.1082C94.6875 95.4379 94.743 95.7853 94.7453 96.1357C94.7453 96.3056 94.7453 96.47 94.7453 96.6344C94.7453 96.7988 94.7331 96.9577 94.7183 97.1139C94.6263 98.1903 94.3454 99.2358 93.8916 100.191C93.6064 100.793 93.2535 101.352 92.8415 101.854C92.7017 102.027 92.5839 102.147 92.5054 102.23C92.4269 102.312 92.3852 102.35 92.3852 102.35C92.3852 102.35 92.422 102.303 92.4981 102.219C92.5741 102.134 92.6845 102.01 92.8219 101.835C93.2227 101.327 93.567 100.767 93.8474 100.166C94.2887 99.2144 94.5603 98.1759 94.6472 97.1084C94.6619 96.9523 94.6693 96.7933 94.6717 96.6317C94.6742 96.47 94.6717 96.3056 94.6717 96.1385C94.6674 95.7972 94.6118 95.4591 94.5074 95.1384C94.409 94.7976 94.241 94.4871 94.0167 94.2314C93.8992 94.1057 93.7573 94.0119 93.6021 93.9574C93.4403 93.9122 93.2705 93.9179 93.1114 93.9739C92.9499 94.0497 92.804 94.1618 92.6829 94.3032C92.5618 94.4446 92.468 94.6123 92.4073 94.7959C92.2642 95.1799 92.1884 95.591 92.1841 96.007C92.189 96.8988 92.4698 97.7613 92.9789 98.4483C93.2439 98.8185 93.5716 99.1266 93.9433 99.3551C94.315 99.5836 94.7235 99.728 95.1452 99.7799C96.0457 99.8954 96.9549 99.6717 97.7286 99.1443C98.5423 98.59 99.1601 97.7394 99.4778 96.7358C99.8179 95.6927 99.8785 94.5616 99.652 93.4807C99.6029 93.2072 99.5204 92.9426 99.4067 92.6943C99.3532 92.5733 99.2765 92.4671 99.1819 92.3832C99.0873 92.2994 98.9772 92.24 98.8596 92.2093C98.6167 92.1601 98.3662 92.2149 98.1579 92.3628C97.9444 92.5105 97.7786 92.7302 97.6844 92.9902C97.4947 93.5309 97.4554 94.123 97.5716 94.689C97.6792 95.2675 97.9051 95.8105 98.2315 96.2755C98.7902 97.1046 99.6118 97.6635 100.528 97.8373C100.972 97.9048 101.424 97.8683 101.855 97.7301C102.286 97.5919 102.686 97.355 103.03 97.0345C103.718 96.4243 104.188 95.5593 104.355 94.5959C104.394 94.3629 104.411 94.1259 104.404 93.8889C104.408 93.6563 104.377 93.4247 104.311 93.2039C104.253 92.9893 104.139 92.7987 103.985 92.6559C103.908 92.5922 103.818 92.5513 103.723 92.5369C103.628 92.5225 103.532 92.5352 103.442 92.5737C103.263 92.6573 103.116 92.8112 103.03 93.0067C102.945 93.2021 102.919 93.4234 102.957 93.6369C103.046 94.0629 103.254 94.4464 103.55 94.7329C103.83 95.0242 104.16 95.2498 104.519 95.3962C104.879 95.5426 105.261 95.6068 105.643 95.585C106.005 95.5639 106.359 95.4596 106.682 95.2785C107.006 95.0974 107.293 94.8436 107.525 94.5328C107.974 93.9563 108.22 93.2172 108.217 92.4532V92.4724C108.176 92.369 108.106 92.2838 108.017 92.2306C107.928 92.1774 107.825 92.1593 107.726 92.1792C107.526 92.1916 107.338 92.2897 107.201 92.4532C107.137 92.5344 107.093 92.632 107.071 92.7372C107.05 92.8425 107.052 92.952 107.078 93.056C107.125 93.2689 107.229 93.4605 107.378 93.604C107.518 93.7426 107.683 93.8461 107.862 93.9075C108.041 93.969 108.23 93.9869 108.415 93.9602C108.771 93.9079 109.115 93.7874 109.433 93.604L112.647 91.7764L114.691 90.6229L115.223 90.3242L115.405 90.2393Z" fill="#263238"/>
<path d="M93.4279 22.6462C93.4279 22.6873 88.2391 22.7202 81.8383 22.7202C75.4376 22.7202 70.2463 22.6873 70.2463 22.6462C70.2463 22.6051 75.4351 22.575 81.8383 22.575C88.2415 22.575 93.4279 22.6078 93.4279 22.6462Z" fill="#E0E0E0"/>
<path d="M97.2919 22.6462C96.7591 22.7448 96.2153 22.7448 95.6825 22.6462C96.2156 22.5512 96.7588 22.5512 97.2919 22.6462Z" fill="#E0E0E0"/>
<path d="M120.368 22.6462C120.368 22.6873 115.633 22.7202 109.797 22.7202C103.96 22.7202 99.2251 22.6873 99.2251 22.6462C99.2251 22.6051 103.955 22.575 109.797 22.575C115.638 22.575 120.368 22.6078 120.368 22.6462Z" fill="#E0E0E0"/>
<path d="M93.4279 29.8496C93.4279 29.8907 88.2391 29.9208 81.8383 29.9208C75.4376 29.9208 70.2463 29.8907 70.2463 29.8496C70.2463 29.8085 75.4351 29.7783 81.8383 29.7783C88.2415 29.7783 93.4279 29.8112 93.4279 29.8496Z" fill="#E0E0E0"/>
<path d="M97.2919 29.8496C96.7588 29.9445 96.2156 29.9445 95.6825 29.8496C96.2156 29.7546 96.7588 29.7546 97.2919 29.8496Z" fill="#E0E0E0"/>
<path d="M120.368 29.8496C120.368 29.8907 115.633 29.9208 109.797 29.9208C103.96 29.9208 99.2251 29.8907 99.2251 29.8496C99.2251 29.8085 103.955 29.7783 109.797 29.7783C115.638 29.7783 120.368 29.8112 120.368 29.8496Z" fill="#E0E0E0"/>
<path d="M114.696 58.3618L108.614 74.147C108.585 74.2205 108.576 74.3021 108.59 74.3812C108.603 74.4602 108.637 74.5329 108.688 74.5896C108.739 74.6463 108.805 74.6844 108.875 74.6988C108.946 74.7132 109.019 74.7032 109.085 74.6703L113.773 72.3577C113.819 72.3341 113.869 72.3216 113.92 72.3212C113.971 72.3207 114.021 72.3322 114.067 72.355C114.114 72.3778 114.155 72.4113 114.189 72.4534C114.223 72.4954 114.249 72.545 114.264 72.5989L115.846 77.9008C115.871 77.9788 115.916 78.0464 115.976 78.0943C116.036 78.1422 116.109 78.1679 116.183 78.1679C116.256 78.1679 116.329 78.1422 116.389 78.0943C116.449 78.0464 116.494 77.9788 116.519 77.9008L122.237 60.8744L114.696 58.3618Z" fill="#407BFF"/>
<path d="M122.623 61.0004L125.535 77.8734C125.548 77.9522 125.583 78.0246 125.634 78.0812C125.685 78.1379 125.75 78.176 125.82 78.1908C125.891 78.2056 125.964 78.1963 126.03 78.1641C126.096 78.1319 126.151 78.0783 126.19 78.0104L128.903 73.1578C128.929 73.1107 128.964 73.0702 129.005 73.039C129.047 73.0077 129.093 72.9864 129.142 72.9763C129.191 72.9663 129.241 72.9677 129.29 72.9806C129.338 72.9934 129.384 73.0174 129.423 73.051L133.4 76.4458C133.459 76.4953 133.53 76.5234 133.603 76.5262C133.677 76.529 133.75 76.5064 133.811 76.4614C133.873 76.4165 133.921 76.3514 133.948 76.2751C133.976 76.1988 133.981 76.1149 133.964 76.0348L130.122 58.3618L122.623 61.0004Z" fill="#407BFF"/>
<g opacity="0.3">
<path d="M114.696 58.3618L108.614 74.147C108.585 74.2205 108.576 74.3021 108.59 74.3812C108.603 74.4602 108.637 74.5329 108.688 74.5896C108.739 74.6463 108.805 74.6844 108.875 74.6988C108.946 74.7132 109.019 74.7032 109.085 74.6703L113.773 72.3577C113.819 72.3341 113.869 72.3216 113.92 72.3212C113.971 72.3207 114.021 72.3322 114.067 72.355C114.114 72.3778 114.155 72.4113 114.189 72.4534C114.223 72.4954 114.249 72.545 114.264 72.5989L115.846 77.9008C115.871 77.9788 115.916 78.0464 115.976 78.0943C116.036 78.1422 116.109 78.1679 116.183 78.1679C116.256 78.1679 116.329 78.1422 116.389 78.0943C116.449 78.0464 116.494 77.9788 116.519 77.9008L122.237 60.8744L114.696 58.3618Z" fill="black"/>
</g>
<g opacity="0.3">
<path d="M122.623 61.0004L125.535 77.8734C125.548 77.9522 125.583 78.0246 125.634 78.0812C125.685 78.1379 125.75 78.176 125.82 78.1908C125.891 78.2056 125.964 78.1963 126.03 78.1641C126.096 78.1319 126.151 78.0783 126.19 78.0104L128.903 73.1578C128.929 73.1107 128.964 73.0702 129.005 73.039C129.047 73.0077 129.093 72.9864 129.142 72.9763C129.191 72.9663 129.241 72.9677 129.29 72.9806C129.338 72.9934 129.384 73.0174 129.423 73.051L133.4 76.4458C133.459 76.4953 133.53 76.5234 133.603 76.5262C133.677 76.529 133.75 76.5064 133.811 76.4614C133.873 76.4165 133.921 76.3514 133.948 76.2751C133.976 76.1988 133.981 76.1149 133.964 76.0348L130.122 58.3618L122.623 61.0004Z" fill="black"/>
</g>
<path d="M122.917 30.7044L124.914 29.0659L126.484 31.2059L128.783 30.1756L129.825 32.6855L132.284 32.3238L132.733 35.0446L135.193 35.3761L135.024 38.1381L137.333 39.1409L136.555 41.7686L138.567 43.3852L137.23 45.7142L138.819 47.8349L137.001 49.72L138.071 52.2162L135.893 53.5369L136.371 56.2522L133.967 56.9262L133.824 59.6882L131.347 59.6745L130.593 62.3103L128.196 61.6089L126.879 63.9516L124.715 62.6063L122.917 64.5106L121.121 62.6063L118.957 63.9516L117.64 61.6089L115.243 62.3103L114.49 59.6745L112.012 59.6882L111.87 56.9262L109.465 56.2522L109.944 53.5369L107.765 52.2162L108.832 49.72L107.017 47.8349L108.607 45.7142L107.27 43.3852L109.281 41.7686L108.501 39.1409L110.812 38.1381L110.643 35.3761L113.104 35.0446L113.553 32.3238L116.011 32.6855L117.053 30.1756L119.352 31.2059L120.92 29.0659L122.917 30.7044Z" fill="#407BFF"/>
<path d="M130.854 55.6523C135.237 50.7568 135.237 42.8198 130.854 37.9244C126.47 33.029 119.364 33.029 114.98 37.9244C110.597 42.8198 110.597 50.7568 114.98 55.6523C119.364 60.5477 126.47 60.5477 130.854 55.6523Z" fill="white"/>
<path d="M125.365 43.818L128.376 44.3112C128.487 44.3293 128.592 44.3819 128.678 44.4631C128.764 44.5443 128.828 44.6509 128.863 44.7707C128.898 44.8905 128.902 45.0187 128.875 45.1409C128.847 45.2631 128.79 45.3744 128.709 45.462L126.528 47.8321C126.458 47.9083 126.405 48.0025 126.375 48.1066C126.344 48.2108 126.337 48.3216 126.354 48.4295L126.867 51.786C126.886 51.9099 126.873 52.0372 126.831 52.1536C126.788 52.27 126.717 52.3708 126.626 52.4446C126.535 52.5184 126.427 52.5623 126.315 52.5713C126.203 52.5803 126.091 52.5541 125.991 52.4956L123.292 50.9092C123.206 50.8578 123.109 50.831 123.011 50.831C122.913 50.831 122.817 50.8578 122.73 50.9092L120.032 52.4874C119.932 52.5454 119.82 52.5711 119.708 52.5616C119.596 52.5522 119.488 52.5079 119.397 52.4338C119.306 52.3598 119.236 52.2588 119.194 52.1424C119.152 52.026 119.139 51.8988 119.158 51.775L119.676 48.4267C119.693 48.3191 119.686 48.2085 119.656 48.1045C119.626 48.0005 119.574 47.9061 119.504 47.8294L117.326 45.4538C117.245 45.366 117.188 45.2545 117.16 45.1321C117.133 45.0097 117.138 44.8813 117.173 44.7614C117.208 44.6415 117.272 44.535 117.358 44.454C117.445 44.373 117.55 44.3207 117.662 44.303L120.675 43.818C120.771 43.8031 120.863 43.7618 120.943 43.6977C121.022 43.6337 121.086 43.5489 121.128 43.4509L122.48 40.404C122.53 40.2914 122.607 40.1965 122.703 40.1302C122.798 40.0639 122.909 40.0288 123.021 40.0288C123.134 40.0288 123.244 40.0639 123.34 40.1302C123.435 40.1965 123.512 40.2914 123.562 40.404L124.904 43.4564C124.949 43.5542 125.014 43.6383 125.094 43.7013C125.175 43.7644 125.268 43.8044 125.365 43.818Z" fill="#407BFF"/>
<path d="M166.522 56.7455C166.522 56.7455 163.598 70.1249 150.505 67.0588C150.505 67.0588 154.3 53.5095 166.522 56.7455Z" fill="#263238"/>
<path d="M160.203 77.0076C160.203 77.0076 154.192 87.0169 144.256 80.0956C144.256 80.0956 151.027 70.2398 160.203 77.0076Z" fill="#263238"/>
<path d="M150.62 92.2778C150.62 92.2778 141.852 100.605 133.447 90.283C133.461 90.283 142.963 82.359 150.62 92.2778Z" fill="#263238"/>
<path d="M141.334 59.9045C141.334 59.9045 151.059 65.1242 146.339 77.0871C146.339 77.0871 136.651 71.0043 141.334 59.9045Z" fill="#263238"/>
<path d="M139.224 74.3279C139.224 74.3279 144.074 81.6409 136.844 87.9238C136.844 87.9238 132.303 80.0353 139.224 74.3279Z" fill="#263238"/>
<path d="M161.719 41.1001C161.719 41.1001 162.835 51.945 152.347 53.6822C152.352 53.6822 151.834 42.4427 161.719 41.1001Z" fill="#263238"/>
<path d="M146.677 30.1399C146.677 30.1399 155.159 34.0965 151.476 45.2099C151.476 45.188 142.975 40.4478 146.677 30.1399Z" fill="#263238"/>
<path d="M141.557 45.9717C141.557 45.9717 152.789 47.402 151.8 61.0554C151.8 61.0554 140.331 58.7593 141.557 45.9717Z" fill="#263238"/>
<path d="M125.574 93.6286C125.574 93.6286 125.621 93.6094 125.716 93.5793L126.136 93.456C126.506 93.3464 127.053 93.2012 127.745 92.9491C129.7 92.2733 131.59 91.3831 133.388 90.2913C136.057 88.6627 138.52 86.6458 140.713 84.2934C142.011 82.9096 143.22 81.4264 144.332 79.8546L145.176 78.5887L145.601 77.9503C145.738 77.7311 145.863 77.5037 145.998 77.279L146.79 75.909L147.526 74.4787C147.647 74.2376 147.772 73.9992 147.889 73.7609C148.007 73.5225 148.108 73.2677 148.216 73.0238C148.432 72.5333 148.65 72.0511 148.859 71.5634C149.067 71.0757 149.231 70.577 149.418 70.0893C149.509 69.8454 149.607 69.6043 149.69 69.3604L149.936 68.6206L150.404 67.1629C150.534 66.6725 150.649 66.1848 150.789 65.7053C150.853 65.4641 150.917 65.2258 150.978 64.9874C151.04 64.749 151.084 64.5079 151.138 64.2695L151.435 62.8557C152.076 59.5351 152.356 56.1405 152.271 52.7451C152.204 50.4572 151.976 48.1787 151.589 45.9307C151.435 45.1361 151.3 44.5251 151.219 44.1086C151.177 43.9031 151.145 43.7469 151.123 43.6346C151.101 43.5222 151.096 43.4729 151.096 43.4729C151.096 43.4729 151.111 43.525 151.135 43.6318L151.243 44.1031C151.334 44.5168 151.489 45.1279 151.638 45.9197C152.662 51.5199 152.632 57.2965 151.55 62.8831C151.452 63.3489 151.353 63.822 151.253 64.3024C151.201 64.5408 151.16 64.7846 151.096 65.023C151.032 65.2614 150.971 65.5025 150.907 65.7436L150.522 67.204L150.053 68.6672C149.975 68.9138 149.896 69.1604 149.808 69.4097C149.72 69.6591 149.626 69.8975 149.533 70.1441L148.974 71.6237C148.765 72.1114 148.545 72.5964 148.331 73.0868L148.002 73.8266C147.882 74.0677 147.757 74.3061 147.637 74.5472L146.901 75.983L146.103 77.353C145.969 77.5777 145.843 77.8051 145.704 78.0243L145.277 78.6682L144.43 79.9368C143.318 81.5152 142.107 83.004 140.807 84.3921C138.604 86.7473 136.128 88.7627 133.447 90.3844C131.637 91.4705 129.733 92.3491 127.765 93.0066C127.071 93.2505 126.519 93.3875 126.146 93.4861L125.724 93.5985L125.574 93.6286Z" fill="#263238"/>
<path d="M138.172 80.2244C138.185 80.3262 138.185 80.4295 138.172 80.5312C138.157 80.7258 138.13 81.0107 138.093 81.3532C138.017 82.0519 137.887 83.0137 137.703 84.0686C137.519 85.1235 137.313 86.0715 137.149 86.7483C137.065 87.0881 136.997 87.3621 136.943 87.5511C136.921 87.6511 136.889 87.7477 136.847 87.8388C136.853 87.7368 136.869 87.6358 136.894 87.5374C136.94 87.3155 136.997 87.0442 137.06 86.7154C137.203 86.0332 137.394 85.0851 137.578 84.033C137.762 82.9808 137.904 82.0245 138.002 81.3313C138.049 81.008 138.091 80.734 138.123 80.5093C138.13 80.4127 138.147 80.3173 138.172 80.2244Z" fill="#455A64"/>
<path d="M140.561 91.0857C140.469 91.0901 140.377 91.0809 140.287 91.0583L139.551 90.935C138.922 90.8309 138.052 90.6939 137.097 90.5678C136.143 90.4418 135.26 90.3514 134.627 90.2938L133.876 90.2199C133.783 90.2162 133.691 90.2015 133.601 90.176C133.693 90.1627 133.786 90.1627 133.878 90.176C134.058 90.176 134.315 90.176 134.632 90.2034C135.269 90.239 136.145 90.313 137.112 90.4391C138.079 90.5651 138.947 90.7131 139.565 90.8501C139.879 90.9158 140.13 90.9734 140.301 91.0172C140.39 91.0278 140.478 91.0508 140.561 91.0857Z" fill="#455A64"/>
<path d="M152.381 77.8161C152.276 77.8573 152.168 77.8866 152.058 77.9038L151.17 78.0983C150.419 78.2655 149.386 78.5066 148.253 78.8107C147.119 79.1149 146.101 79.4327 145.365 79.6683L144.494 79.9423C144.39 79.9832 144.282 80.0125 144.173 80.03C144.269 79.969 144.372 79.9212 144.479 79.8875C144.68 79.8053 144.97 79.6957 145.34 79.5642C146.076 79.3039 147.085 78.9724 148.221 78.6655C149.357 78.3586 150.397 78.1312 151.165 77.9915C151.542 77.9202 151.849 77.8709 152.063 77.8408C152.168 77.8205 152.275 77.8123 152.381 77.8161Z" fill="#455A64"/>
<path d="M143.797 67.5547C143.873 67.6576 143.94 67.7686 143.996 67.8862C144.121 68.1054 144.285 68.4342 144.474 68.837C145.458 70.9816 146.06 73.3191 146.246 75.7199C146.28 76.1775 146.295 76.5419 146.295 76.8159C146.306 76.9489 146.306 77.0829 146.295 77.2159C146.27 77.0852 146.257 76.9522 146.255 76.8186C146.243 76.5638 146.214 76.1939 146.167 75.7363C145.935 73.3573 145.339 71.0403 144.406 68.8863C144.227 68.4726 144.077 68.1438 143.967 67.9164C143.9 67.8022 143.843 67.6811 143.797 67.5547Z" fill="#455A64"/>
<path d="M156.825 61.3157C156.745 61.3927 156.659 61.4606 156.567 61.5184L155.846 62.0418C155.242 62.4911 154.423 63.1378 153.564 63.9105C152.705 64.6831 151.969 65.4503 151.452 66.0175L150.843 66.697C150.774 66.7851 150.697 66.865 150.613 66.9354C150.669 66.8372 150.734 66.7454 150.806 66.6614C150.939 66.4888 151.138 66.2449 151.388 65.9518C152.046 65.1876 152.745 64.4702 153.483 63.8036C154.22 63.1366 154.992 62.5208 155.797 61.9596C156.108 61.7459 156.361 61.5815 156.533 61.4719C156.624 61.4067 156.722 61.3543 156.825 61.3157Z" fill="#455A64"/>
<path d="M144.56 51.4106C144.594 51.4331 144.625 51.4598 144.653 51.4901L144.899 51.7367C145.112 51.9532 145.416 52.2847 145.782 52.6765C146.518 53.4821 147.499 54.6301 148.52 55.9645C149.54 57.2989 150.399 58.5675 150.995 59.5046C151.292 59.9731 151.528 60.3567 151.685 60.6253L151.864 60.9376C151.903 61.0116 151.923 61.05 151.918 61.0527C151.888 61.0239 151.863 60.9907 151.842 60.9541L151.643 60.6581L150.922 59.5621C150.308 58.6415 149.45 57.3866 148.422 56.0549C147.394 54.7233 146.435 53.5643 145.723 52.7423L144.864 51.786L144.634 51.512C144.582 51.449 144.558 51.4161 144.56 51.4106Z" fill="#455A64"/>
<path d="M158.088 44.6235C158.015 44.7443 157.933 44.858 157.843 44.9633L157.161 45.862C156.589 46.6237 155.821 47.6951 155.031 48.9281C154.241 50.1611 153.584 51.3201 153.122 52.1722L152.597 53.1806C152.538 53.3087 152.468 53.4307 152.389 53.545C152.435 53.4099 152.49 53.2789 152.553 53.1532C152.666 52.9066 152.84 52.5531 153.061 52.1202C153.503 51.2543 154.153 50.0844 154.945 48.8459C155.738 47.6074 156.52 46.5415 157.109 45.7963C157.404 45.4209 157.649 45.125 157.823 44.9249C157.904 44.8163 157.992 44.7155 158.088 44.6235Z" fill="#455A64"/>
<path d="M147.936 34.3267C148.003 34.4554 148.062 34.589 148.113 34.7267C148.218 34.9843 148.358 35.3624 148.544 35.8227C148.9 36.7598 149.371 38.0695 149.855 39.5299C150.338 40.9903 150.743 42.3247 151.02 43.2974C151.16 43.7824 151.265 44.177 151.339 44.451C151.382 44.5912 151.414 44.7351 151.437 44.8811C151.377 44.7486 151.327 44.6101 151.29 44.4674L150.934 43.3276C150.637 42.3658 150.218 41.0369 149.734 39.5792C149.251 38.1216 148.795 36.8091 148.461 35.8611C148.299 35.4035 148.167 35.0391 148.066 34.7349C148.011 34.6041 147.967 34.4673 147.936 34.3267Z" fill="#455A64"/>
<path d="M19.6267 53.767C19.6267 53.767 22.3916 66.4094 34.7638 63.5132C34.7564 63.5132 31.1696 50.7092 19.6267 53.767Z" fill="#263238"/>
<path d="M25.5981 72.914C25.5981 72.914 31.2776 82.3725 40.6616 75.8321C40.6616 75.8321 34.2633 66.5189 25.5981 72.914Z" fill="#263238"/>
<path d="M34.646 87.343C34.646 87.343 42.9334 95.215 50.8699 85.4606C50.8699 85.4606 41.8833 77.9695 34.646 87.343Z" fill="#263238"/>
<path d="M43.4241 56.7537C43.4241 56.7537 34.2339 61.6857 38.694 72.9882C38.6916 72.9882 47.8572 67.2424 43.4241 56.7537Z" fill="#263238"/>
<path d="M45.4162 70.3823C45.4162 70.3823 40.8334 77.2926 47.6635 83.2302C47.6635 83.2302 51.9568 75.7774 45.4162 70.3823Z" fill="#263238"/>
<path d="M24.1604 38.9819C24.1604 38.9819 23.1055 49.2295 33.017 50.8708C33.017 50.8708 33.4978 40.2506 24.1604 38.9819Z" fill="#263238"/>
<path d="M38.3751 28.6111C38.3751 28.6111 30.3576 32.3512 33.8389 42.8591C33.8389 42.8454 41.8711 38.36 38.3751 28.6111Z" fill="#263238"/>
<path d="M43.213 43.5852C43.213 43.5852 32.5975 44.9388 33.5322 57.8332C33.5322 57.8387 44.3735 55.6713 43.213 43.5852Z" fill="#263238"/>
<path d="M60.6441 89.4966L60.4993 89.4665L60.0798 89.3624C59.7118 89.2665 59.1671 89.1377 58.4778 88.9103C56.5246 88.3027 54.6226 87.506 52.7934 86.5292C51.5268 85.8608 50.2979 85.1068 49.1134 84.2714C47.7501 83.3199 46.449 82.2614 45.2199 81.104C43.8576 79.829 42.5854 78.4385 41.4148 76.9447L40.5218 75.7418C40.2323 75.3281 39.9575 74.8979 39.6705 74.4732C39.5282 74.2595 39.3859 74.043 39.2412 73.8293L38.8462 73.158C38.5861 72.7032 38.3089 72.2538 38.0562 71.788C37.5655 70.8345 37.0749 69.9084 36.6701 68.9384C36.2285 67.9931 35.8801 67.0204 35.517 66.0669C32.9568 58.958 32.3138 51.1682 33.6672 43.6564C33.8144 42.8728 33.964 42.2727 34.0499 41.8617C34.0965 41.6617 34.1309 41.5055 34.1554 41.3959C34.1799 41.2863 34.1971 41.2397 34.1971 41.2397C34.1971 41.2397 34.1971 41.2945 34.1677 41.4014C34.1382 41.5083 34.1162 41.6754 34.0744 41.8672C33.9959 42.2809 33.8536 42.8837 33.7138 43.6674C33.3394 45.8877 33.1269 48.1382 33.0784 50.3968C33.0078 55.7394 33.8764 61.0456 35.6348 66.0148C35.9954 66.9601 36.3438 67.9328 36.7854 68.8754C37.1853 69.8399 37.6858 70.7633 38.1642 71.714C38.4095 72.1798 38.6916 72.6264 38.9517 73.084L39.3467 73.7581L39.7735 74.3992C40.0581 74.8239 40.3329 75.2541 40.6199 75.6651L41.5105 76.8625C43.7354 79.7012 46.315 82.167 49.1698 84.1838C52.0643 86.2274 55.2029 87.8039 58.4925 88.8664C59.177 89.1021 59.7191 89.2391 60.0871 89.3432L60.5018 89.4637L60.6441 89.4966Z" fill="#263238"/>
<path d="M46.4097 75.9529C46.4366 76.0419 46.4555 76.1337 46.4662 76.2269C46.4981 76.4406 46.5349 76.6982 46.579 77.0023C46.6722 77.6572 46.8096 78.5614 46.9814 79.556C47.1531 80.5506 47.3346 81.4438 47.472 82.0905C47.5334 82.3891 47.5849 82.6385 47.629 82.8577C47.6533 82.9467 47.6673 83.0387 47.6708 83.1317C47.6311 83.0446 47.6006 82.9526 47.58 82.8577C47.5309 82.6823 47.4622 82.422 47.3837 82.1014C47.2267 81.4603 47.0353 80.567 46.8587 79.5697C46.6821 78.5723 46.5643 77.6517 46.4932 77.0023C46.4564 76.6735 46.4318 76.405 46.4196 76.2187C46.4069 76.1308 46.4036 76.0416 46.4097 75.9529Z" fill="#455A64"/>
<path d="M44.16 86.2169C44.2391 86.181 44.3213 86.1544 44.4054 86.1375C44.5673 86.0964 44.8077 86.0416 45.1021 85.9786C45.6934 85.8553 46.5152 85.7046 47.4279 85.5895C48.3405 85.4744 49.1697 85.4004 49.7708 85.3703C50.0726 85.3538 50.3154 85.3429 50.4823 85.3429C50.5694 85.33 50.6577 85.33 50.7448 85.3429C50.6607 85.3682 50.5742 85.382 50.4872 85.384L49.7782 85.4552C49.1796 85.5128 48.3528 85.6004 47.4426 85.7292C46.5324 85.858 45.7253 85.9786 45.1168 86.0772L44.4127 86.1895C44.3299 86.2109 44.245 86.2201 44.16 86.2169Z" fill="#455A64"/>
<path d="M32.9827 73.673C33.088 73.6689 33.1935 73.679 33.2967 73.7031C33.4979 73.7305 33.7874 73.7771 34.1431 73.8429C34.8595 73.9744 35.8408 74.1881 36.9154 74.4786C37.9899 74.769 38.9492 75.0814 39.6386 75.3307C39.982 75.454 40.2593 75.5609 40.4506 75.6376C40.551 75.671 40.648 75.716 40.7401 75.7718C40.6353 75.7582 40.5324 75.7306 40.4334 75.6896L39.6116 75.4156C38.9173 75.1937 37.9556 74.8978 36.8835 74.6073C35.8114 74.3169 34.8374 74.0895 34.1284 73.9306L33.2893 73.747C33.1853 73.733 33.0826 73.7082 32.9827 73.673Z" fill="#455A64"/>
<path d="M41.0959 63.9817C41.0562 64.0997 41.0069 64.2135 40.9487 64.3215C40.8456 64.5352 40.7033 64.8475 40.534 65.2394C40.0955 66.2548 39.7344 67.3098 39.4546 68.3931C39.1777 69.4774 38.9816 70.5854 38.8682 71.7058C38.8265 72.1359 38.7971 72.4866 38.7848 72.7278C38.7832 72.8541 38.77 72.9798 38.7456 73.1031C38.7315 72.9778 38.7274 72.8512 38.7333 72.725C38.7333 72.4812 38.7456 72.1305 38.7775 71.6975C38.8659 70.5651 39.0516 69.4448 39.3319 68.352C39.6127 67.2607 39.9882 66.2026 40.4531 65.1928C40.6322 64.8064 40.7867 64.4995 40.9045 64.294C40.9576 64.1823 41.0218 64.0775 41.0959 63.9817Z" fill="#455A64"/>
<path d="M28.785 58.0879C28.8783 58.1261 28.9679 58.1747 29.0524 58.2331C29.2217 58.3345 29.4622 58.4907 29.7566 58.6934C30.5172 59.2229 31.248 59.804 31.9449 60.4333C32.641 61.0639 33.3014 61.7419 33.9223 62.4637C34.1676 62.7377 34.3467 62.9706 34.4719 63.135C34.5412 63.2192 34.6029 63.311 34.6559 63.409C34.5746 63.343 34.5005 63.2667 34.4351 63.1816L33.8561 62.5322C33.3654 61.9842 32.6736 61.2773 31.8615 60.5402C31.0495 59.8031 30.2742 59.1976 29.705 58.7756L29.0255 58.277C28.9389 58.2247 28.8582 58.1613 28.785 58.0879Z" fill="#455A64"/>
<path d="M40.3745 48.7253C40.2867 48.8491 40.1907 48.9654 40.0875 49.0733L39.2803 49.9912C38.6056 50.7666 37.6881 51.8626 36.7264 53.1203C35.7647 54.378 34.9453 55.5644 34.3638 56.4357L33.6818 57.4687C33.6036 57.5991 33.5167 57.7228 33.4218 57.8386C33.4852 57.6983 33.5582 57.5636 33.6401 57.4358C33.7873 57.181 34.0106 56.8166 34.2902 56.3754C34.8545 55.4877 35.6666 54.2903 36.6307 53.0271C37.5949 51.764 38.5173 50.6899 39.2165 49.92C39.5649 49.5391 39.8495 49.235 40.0531 49.0322C40.1535 48.9214 40.2609 48.8188 40.3745 48.7253Z" fill="#455A64"/>
<path d="M27.5902 42.311C27.6854 42.3937 27.774 42.4854 27.8552 42.585C28.0195 42.7741 28.2502 43.0536 28.5274 43.407C29.2533 44.3336 29.9363 45.3012 30.5735 46.306C31.3095 47.4759 31.9375 48.5829 32.3546 49.3994C32.5631 49.8077 32.725 50.142 32.8453 50.3776C32.9073 50.496 32.959 50.6208 32.9998 50.7502C32.9254 50.6412 32.859 50.5258 32.8011 50.405L32.2883 49.4515C31.8517 48.6487 31.2285 47.5554 30.4827 46.3882C29.7369 45.2209 29.0107 44.2099 28.471 43.4892C28.2256 43.144 27.9975 42.859 27.8306 42.6398C27.7403 42.54 27.6597 42.4298 27.5902 42.311Z" fill="#455A64"/>
<path d="M37.1876 32.5813C37.1567 32.7173 37.1157 32.8502 37.065 32.9786C36.9693 33.2526 36.8442 33.6115 36.6921 34.0417C36.378 34.9377 35.9561 36.1789 35.4899 37.5571C35.0238 38.9354 34.6362 40.1903 34.3467 41.1C34.2093 41.5356 34.1013 41.8973 34.0106 42.1768C33.9754 42.3113 33.9286 42.4416 33.8707 42.5659C33.8908 42.4281 33.9212 42.2924 33.9615 42.1603C34.0277 41.8863 34.1308 41.5274 34.2608 41.0643C34.5233 40.1464 34.9036 38.8723 35.3624 37.5023C35.8211 36.1323 36.2652 34.8884 36.6013 34.0006C36.7706 33.5567 36.9104 33.2005 37.011 32.9539C37.0593 32.8238 37.1184 32.699 37.1876 32.5813Z" fill="#455A64"/>
<path d="M60.6316 45.4841C62.4201 45.7444 62.6851 47.7911 63.3475 49.5091C64.0099 51.2271 65.2782 52.756 66.2547 54.2932C66.7699 55.1152 67.4813 55.8358 67.658 56.8003C67.8518 57.8086 67.4396 58.8525 67.2458 59.88C67.052 60.9075 67.1894 62.1652 68.0726 62.62C67.9734 62.7494 67.8486 62.8512 67.7081 62.9173C67.5675 62.9834 67.4151 63.012 67.263 63.0009C67.263 63.4749 66.8533 63.8832 66.4068 64.0202C65.9568 64.1202 65.4931 64.1146 65.0452 64.0037C65.1654 64.3188 64.9102 64.6997 64.5938 64.8257C64.2725 64.9239 63.9336 64.9239 63.6124 64.8257C63.2936 64.7247 62.9596 64.6976 62.6311 64.7463C61.8951 64.9244 61.4657 65.8423 60.7297 65.9573C59.719 66.1217 58.9928 64.6778 57.9943 64.9298C57.5257 65.0477 57.2141 65.5052 56.829 65.8176C56.4438 66.13 55.7936 66.0505 55.6023 65.6011C55.0675 66.3546 54.2407 67.0862 53.3697 67.2862C53.432 67.1216 53.4491 66.9399 53.419 66.7644C53.3889 66.5888 53.3128 66.4272 53.2005 66.2998C52.7229 66.7354 52.1492 67.0193 51.5396 67.1218C51.7228 66.9339 51.8672 66.7038 51.963 66.4474C52.0587 66.191 52.1034 65.9144 52.094 65.6368C51.8888 65.8167 51.6496 65.942 51.3945 66.0033C51.1395 66.0645 50.8753 66.06 50.622 65.9902C51.5199 65.4176 51.6034 64.0859 51.2893 63.0858C50.9753 62.0857 50.362 61.1897 50.2442 60.1348C50.1142 58.9868 51.3212 57.5346 51.0857 56.4084C50.7226 54.6713 50.7496 53.6136 50.8134 51.9916C50.8551 50.9312 51.2746 49.9886 51.6917 48.9995C52.18 47.7743 53.0164 46.763 54.0714 46.1225C55.0208 45.5252 56.3898 44.9772 57.4766 44.9498C59.4148 44.9032 60.2023 44.8347 61.7356 45.98" fill="#263238"/>
<path d="M54.6603 59.6279C54.0237 58.2477 53.4959 56.8084 53.0828 55.3261C52.6685 53.8368 52.5927 52.2558 52.862 50.7256C52.9086 50.4982 53.3526 48.9391 53.5636 48.9309C53.7133 48.9309 53.4949 50.3475 53.5881 50.4817C54.4689 51.7476 54.8639 53.3724 54.9399 54.9726C55.0016 56.5321 54.9078 58.0943 54.6603 59.6306" fill="#263238"/>
<path d="M63.134 72.7525C60.9923 73.0265 55.8403 70.5112 55.5532 68.1274L53.8163 53.7807C53.2422 49.9447 54.7608 46.3827 58.2127 45.8347L58.534 45.8046C60.0947 45.6645 61.6453 46.1862 62.877 47.2658C64.1087 48.3453 64.931 49.9035 65.1801 51.6298C65.6708 54.9589 66.1615 58.6415 66.2669 60.4417C66.4927 64.1653 63.2027 65.0421 63.2027 65.0421C63.2027 65.0421 63.2862 65.9025 63.4064 66.9903C63.6787 69.4344 63.3303 72.1141 63.134 72.7443V72.7525Z" fill="#FFBE9D"/>
<path d="M63.2028 65.0422C61.6629 65.1757 60.121 64.8135 58.7598 63.9983C58.7598 63.9983 60.0061 66.7027 63.3058 66.0697L63.2028 65.0422Z" fill="#EB996E"/>
<path d="M63.9387 54.8686C63.9498 55.0066 63.9121 55.1441 63.8337 55.2516C63.7554 55.359 63.6425 55.4281 63.5192 55.444C63.459 55.4552 63.3973 55.4528 63.338 55.4368C63.2786 55.4208 63.2227 55.3916 63.1737 55.3509C63.1247 55.3102 63.0835 55.2589 63.0527 55.2C63.0218 55.1412 63.0019 55.076 62.9942 55.0083C62.9831 54.8702 63.0208 54.7328 63.0992 54.6253C63.1776 54.5178 63.2904 54.4488 63.4137 54.4329C63.474 54.4213 63.5358 54.4234 63.5953 54.4393C63.6548 54.4551 63.7108 54.4843 63.7599 54.525C63.809 54.5658 63.8501 54.6172 63.8809 54.6763C63.9116 54.7353 63.9313 54.8008 63.9387 54.8686Z" fill="#263238"/>
<path d="M64.5888 53.3342C64.5348 53.4082 64.1546 53.1424 63.6418 53.189C63.1291 53.2355 62.7758 53.5561 62.7145 53.4904C62.6531 53.4246 62.7365 53.3314 62.8911 53.1862C63.0998 52.9937 63.3571 52.8788 63.6271 52.8574C63.8932 52.8319 64.1597 52.902 64.3876 53.0574C64.5545 53.178 64.6158 53.2986 64.5888 53.3342Z" fill="#263238"/>
<path d="M59.1253 55.2877C59.1333 55.4254 59.0946 55.5613 59.0168 55.6685C58.9391 55.7757 58.828 55.8461 58.7057 55.8659C58.6456 55.8767 58.584 55.874 58.5248 55.8578C58.4656 55.8417 58.4098 55.8124 58.3609 55.7718C58.312 55.7312 58.2708 55.68 58.2399 55.6214C58.2089 55.5627 58.1888 55.4977 58.1807 55.4302C58.1727 55.2925 58.2114 55.1566 58.2892 55.0494C58.3669 54.9422 58.478 54.8718 58.6003 54.8521C58.6604 54.8416 58.7218 54.8446 58.7809 54.8609C58.84 54.8772 58.8956 54.9065 58.9445 54.947C58.9933 54.9876 59.0345 55.0386 59.0655 55.0971C59.0966 55.1556 59.1169 55.2204 59.1253 55.2877Z" fill="#263238"/>
<path d="M59.5791 53.9151C59.5251 53.9891 59.1424 53.726 58.6321 53.7726C58.1218 53.8192 57.7636 54.1398 57.7048 54.074C57.6459 54.0082 57.7244 53.9151 57.8789 53.7671C58.0876 53.575 58.3451 53.4609 58.6149 53.4411C58.8819 53.4151 59.1492 53.4852 59.3779 53.6411C59.5448 53.7616 59.6159 53.8822 59.5791 53.9151Z" fill="#263238"/>
<path d="M61.7332 58.1455C61.9959 58.026 62.2714 57.945 62.5526 57.9044C62.6827 57.877 62.798 57.8359 62.8176 57.7345C62.8188 57.5827 62.7776 57.4343 62.6998 57.3098L62.2337 56.233C61.5836 54.6986 61.1003 53.43 61.1567 53.4026C61.2131 53.3752 61.7848 54.5945 62.4349 56.1289L62.8863 57.2249C62.9809 57.3938 63.0192 57.5947 62.9942 57.792C62.9791 57.8452 62.9534 57.8937 62.9189 57.9341C62.8845 57.9744 62.8423 58.0055 62.7955 58.0249C62.7241 58.0526 62.65 58.071 62.5747 58.0797C62.2978 58.1412 62.0151 58.1632 61.7332 58.1455Z" fill="#263238"/>
<path d="M59.3706 51.786C59.3117 51.9367 58.8039 51.8271 58.1979 51.8682C57.5919 51.9093 57.0939 52.0573 57.0227 51.9121C56.9908 51.8436 57.0841 51.7011 57.2877 51.5641C57.5601 51.3987 57.8624 51.3042 58.1721 51.2876C58.4818 51.271 58.7908 51.3327 59.0762 51.4682C59.3019 51.5805 59.4074 51.7093 59.3706 51.786Z" fill="#263238"/>
<path d="M64.373 52.008C64.2773 52.1477 63.8504 52.0573 63.3475 52.1039C62.8445 52.1505 62.4299 52.2902 62.322 52.1642C62.2729 52.1039 62.322 51.9669 62.5035 51.8244C62.747 51.6489 63.0263 51.545 63.3155 51.5225C63.6046 51.5 63.8941 51.5595 64.1571 51.6956C64.3435 51.8107 64.4147 51.9395 64.373 52.008Z" fill="#263238"/>
<path d="M54.2874 56.5125C54.2285 56.4906 51.9444 55.9645 52.1996 58.499C52.4547 61.0335 54.6823 60.2279 54.6799 60.143C54.6774 60.0581 54.2874 56.5125 54.2874 56.5125Z" fill="#FFBE9D"/>
<path d="M53.8898 59.2801C53.8898 59.2801 53.853 59.3157 53.7892 59.3595C53.6995 59.415 53.5944 59.4307 53.4948 59.4034C53.2495 59.3349 53.0042 58.9348 52.9404 58.4772C52.9136 58.2603 52.9304 58.0394 52.9895 57.8306C53.0023 57.7488 53.033 57.6718 53.0788 57.6063C53.1245 57.5409 53.184 57.489 53.252 57.4552C53.2959 57.4363 53.3444 57.4349 53.3891 57.4514C53.4338 57.4679 53.4721 57.5012 53.4973 57.5456C53.5365 57.6141 53.5267 57.6662 53.539 57.6689C53.5513 57.6717 53.5832 57.6196 53.5537 57.5182C53.5354 57.4565 53.498 57.4041 53.4482 57.3703C53.3804 57.325 53.2994 57.3112 53.2225 57.3319C53.1316 57.365 53.0496 57.4233 52.9844 57.5014C52.9192 57.5795 52.8728 57.6749 52.8496 57.7785C52.7759 58.0102 52.7531 58.2583 52.7834 58.5019C52.8496 59.0115 53.1317 59.4609 53.4703 59.5267C53.5333 59.5393 53.5981 59.5358 53.6598 59.5163C53.7214 59.4969 53.7783 59.462 53.826 59.4143C53.8898 59.3431 53.8972 59.2828 53.8898 59.2801Z" fill="#EB996E"/>
<path d="M63.2543 47.6267C63.5977 47.3527 62.3514 46.169 61.3995 45.8347C59.9594 45.3278 57.8299 45.1854 56.6131 45.7553C55.1411 46.4403 53.9856 47.4513 53.3919 49.0953C52.8294 50.7616 52.6744 52.5652 52.9429 54.3205C52.9824 54.8629 53.1519 55.3834 53.4336 55.8275C53.8114 56.3454 54.4591 56.6166 54.5155 57.3921C54.5313 57.6765 54.6457 57.9428 54.8344 58.1346C55.3055 58.5703 55.7618 58.0387 55.9458 57.5428C56.3359 56.4824 56.2623 55.2877 56.1911 54.1452C56.1742 53.3282 56.0366 52.52 55.7839 51.7531C55.6268 51.3449 55.406 50.9695 55.2687 50.553C55.1893 50.3496 55.1504 50.1293 55.1546 49.9075C55.1589 49.6856 55.2061 49.4674 55.2932 49.268C55.3373 49.1886 55.3882 49.1143 55.4453 49.046C55.728 48.6941 56.0895 48.4326 56.4926 48.2881C56.8957 48.1437 57.3259 48.1216 57.7392 48.224C59.0713 48.5556 61.3382 49.0131 61.8559 48.4514C62.5919 47.6294 62.7464 47.1636 62.7464 47.1636L63.2543 47.6267Z" fill="#263238"/>
<path d="M60.3642 58.6362C60.3348 58.6362 60.3299 58.7869 60.3986 59.0006C60.4931 59.2819 60.6648 59.5226 60.8892 59.6883C61.1049 59.8487 61.3453 59.9629 61.5983 60.0253C61.7872 60.0747 61.9098 60.0801 61.9196 60.0473C61.9295 60.0144 61.8264 59.9404 61.6547 59.8472C61.4368 59.7387 61.2268 59.6113 61.0266 59.4664C60.5703 59.1403 60.4354 58.6142 60.3642 58.6362Z" fill="#263238"/>
<path d="M54.361 56.844C54.3803 56.8878 54.3972 56.9344 54.4165 56.9865C54.4165 56.992 54.3947 56.9344 54.361 56.844Z" fill="#407BFF"/>
<path d="M53.5832 56.4441C53.5832 56.4441 53.9635 55.8961 54.3609 56.8332C53.8874 55.5892 50.7398 46.5938 59.3706 45.4074C59.3706 45.4074 56.2524 44.7936 54.3732 46.5253C54.3732 46.5362 50.5509 49.0872 53.5832 56.4441Z" fill="#455A64"/>
<path d="M70.0868 101.868L50.0259 102.172C50.0259 102.172 44.4151 99.5497 42.8744 99.4785C41.3337 99.4072 38.272 99.6264 36.8564 102.172C35.3844 104.802 35.1906 109.441 39.6973 112.811C44.0888 116.099 64.1644 119.13 66.9293 118.839L71.9881 111.244C71.9881 111.244 72.0421 105.011 71.9881 104.712C71.9341 104.413 71.0853 101.744 71.0853 101.744L70.0868 101.868Z" fill="#263238"/>
<path d="M58.0778 112.389L47.683 116.699L52.4204 131.172C53.6299 130.58 53.6642 122.081 53.6642 122.081L60.4256 119.615L58.0778 112.389Z" fill="#407BFF"/>
<g opacity="0.6">
<path d="M52.7613 117.376C52.678 117.253 52.5568 117.168 52.421 117.138C52.2852 117.108 52.1443 117.135 52.0253 117.214C51.9097 117.303 51.8294 117.438 51.8015 117.592C51.7735 117.745 51.8001 117.905 51.8757 118.036C51.9643 118.168 52.0935 118.258 52.2381 118.288C52.3828 118.319 52.5325 118.289 52.6583 118.204C52.768 118.097 52.8366 117.948 52.8499 117.787C52.8632 117.625 52.82 117.464 52.7294 117.338" fill="white"/>
</g>
<path d="M47.683 116.7L48.733 116.267L52.9037 130.331C52.9037 130.331 52.8644 131.079 52.4326 131.172L47.683 116.7Z" fill="#263238"/>
<path d="M53.8065 122.289C53.7427 122.311 53.6004 121.969 53.2814 121.705C52.9625 121.442 52.6387 121.363 52.6411 121.289C52.6436 121.215 53.0459 121.168 53.4237 121.497C53.8016 121.826 53.8702 122.278 53.8065 122.289Z" fill="#263238"/>
<path d="M53.7427 124.034C53.6863 124.075 53.4778 123.815 53.1318 123.684C52.7859 123.552 52.4817 123.599 52.4596 123.527C52.4375 123.456 52.7835 123.253 53.2103 123.437C53.6372 123.621 53.8016 124.01 53.7427 124.034Z" fill="#263238"/>
<path d="M52.3982 125.561C52.3639 125.503 52.6436 125.287 53.0533 125.314C53.463 125.341 53.7059 125.629 53.6617 125.681C53.6175 125.733 53.3673 125.604 53.0336 125.577C52.7 125.55 52.4277 125.629 52.3982 125.561Z" fill="#263238"/>
<path d="M55.2932 121.535C55.2245 121.535 55.2073 121.171 55.0478 120.782C54.8884 120.393 54.6774 120.127 54.7191 120.067C54.7608 120.007 55.0846 120.215 55.2613 120.678C55.4379 121.141 55.3545 121.552 55.2932 121.535Z" fill="#263238"/>
<path d="M56.7186 120.56C56.6916 120.56 56.5616 120.308 56.4733 119.834C56.4301 119.555 56.4169 119.272 56.434 118.99C56.4444 118.822 56.4649 118.656 56.4953 118.491C56.5099 118.396 56.5372 118.304 56.5763 118.217C56.6059 118.152 56.6541 118.1 56.7132 118.07C56.7723 118.039 56.839 118.031 56.9026 118.048C56.9581 118.065 57.0092 118.096 57.0518 118.14C57.0944 118.183 57.1274 118.237 57.1479 118.297C57.1778 118.385 57.1968 118.477 57.2043 118.571C57.2517 119.025 57.1952 119.485 57.04 119.908C56.8707 120.357 56.672 120.568 56.6523 120.549C56.6327 120.53 56.7652 120.275 56.883 119.845C56.951 119.592 56.9897 119.331 56.9983 119.067C57.0017 118.912 56.9943 118.757 56.9762 118.604C56.9615 118.437 56.9198 118.305 56.8462 118.291C56.8192 118.291 56.8094 118.291 56.7775 118.335C56.7503 118.402 56.7305 118.472 56.7186 118.543C56.6879 118.695 56.665 118.849 56.6499 119.004C56.6283 119.27 56.6283 119.538 56.6499 119.804C56.6879 120.054 56.7108 120.307 56.7186 120.56Z" fill="#263238"/>
<path d="M56.596 120.508C56.5788 120.489 56.7603 120.256 57.1602 120.061C57.3943 119.952 57.6431 119.887 57.8962 119.87C58.0479 119.862 58.1998 119.87 58.3501 119.894C58.4485 119.898 58.5443 119.931 58.6281 119.988C58.712 120.046 58.781 120.127 58.8285 120.223C58.8494 120.288 58.8528 120.358 58.8384 120.424C58.824 120.491 58.7924 120.552 58.7475 120.598C58.6846 120.668 58.6126 120.726 58.5341 120.771C58.3974 120.855 58.2502 120.915 58.0974 120.949C57.8412 121.009 57.5755 120.997 57.3246 120.914C56.8977 120.768 56.726 120.505 56.7456 120.489C56.9467 120.586 57.1532 120.668 57.3639 120.735C57.5916 120.784 57.8259 120.776 58.0508 120.713C58.1806 120.678 58.3053 120.623 58.4212 120.549C58.5513 120.47 58.642 120.366 58.6101 120.313C58.5783 120.261 58.4433 120.163 58.3133 120.149C58.178 120.123 58.0409 120.11 57.9036 120.111C57.668 120.116 57.4342 120.158 57.2093 120.237C56.8315 120.371 56.618 120.544 56.596 120.508Z" fill="#263238"/>
<path d="M66.6522 110.6L76.7108 115.806L70.97 129.816C69.8047 129.122 70.369 120.645 70.369 120.645L63.8014 117.601L66.6522 110.6Z" fill="#407BFF"/>
<g opacity="0.6">
<path d="M71.6004 116.039C71.6921 115.927 71.8171 115.855 71.9524 115.837C72.0876 115.82 72.224 115.857 72.3364 115.943C72.4427 116.041 72.5114 116.181 72.5282 116.334C72.5451 116.487 72.509 116.641 72.4272 116.765C72.3297 116.888 72.1951 116.966 72.0492 116.984C71.9033 117.002 71.7565 116.959 71.6372 116.864C71.5362 116.747 71.4797 116.591 71.4797 116.428C71.4797 116.266 71.5362 116.109 71.6372 115.992" fill="white"/>
</g>
<path d="M76.7108 115.812L75.6952 115.286L70.5603 128.942C70.5603 128.942 70.5481 129.693 70.97 129.821L76.7108 115.812Z" fill="#263238"/>
<path d="M70.2119 120.834C70.2757 120.862 70.4425 120.533 70.7786 120.286C71.1147 120.04 71.4435 120.012 71.4459 119.927C71.4484 119.842 71.0509 119.774 70.651 120.067C70.2512 120.36 70.1506 120.834 70.2119 120.834Z" fill="#263238"/>
<path d="M70.1653 122.59C70.2169 122.637 70.4426 122.393 70.7983 122.294C71.154 122.196 71.4533 122.267 71.4779 122.199C71.5024 122.13 71.1761 121.908 70.7419 122.042C70.3076 122.177 70.0967 122.56 70.1653 122.59Z" fill="#263238"/>
<path d="M71.392 124.232C71.4312 124.174 71.1638 123.925 70.7566 123.928C70.3493 123.93 70.0843 124.185 70.1236 124.24C70.1628 124.295 70.4229 124.188 70.759 124.191C71.0951 124.193 71.3527 124.295 71.392 124.232Z" fill="#263238"/>
<path d="M68.784 119.965C68.8527 119.965 68.8969 119.606 69.0784 119.234C69.26 118.861 69.493 118.612 69.4562 118.549C69.4194 118.486 69.0809 118.667 68.8724 119.097C68.6638 119.527 68.7227 119.974 68.784 119.965Z" fill="#263238"/>
<path d="M67.4322 118.869C67.4592 118.883 67.6064 118.634 67.7168 118.168C67.7809 117.894 67.8146 117.613 67.8174 117.33C67.8178 117.162 67.8088 116.994 67.7904 116.828C67.7837 116.729 67.763 116.632 67.7291 116.54C67.7037 116.473 67.6591 116.418 67.6023 116.382C67.5454 116.346 67.4796 116.333 67.4151 116.343C67.3586 116.356 67.3054 116.383 67.2599 116.422C67.2143 116.462 67.1776 116.513 67.1526 116.571C67.1164 116.657 67.0916 116.75 67.079 116.845C67.0494 117.011 67.0338 117.179 67.0324 117.349C67.0318 117.634 67.0707 117.918 67.1477 118.19C67.1986 118.447 67.3174 118.682 67.4887 118.864C67.523 118.842 67.3954 118.59 67.3096 118.141C67.2594 117.882 67.2388 117.618 67.2482 117.354C67.2558 117.199 67.2739 117.046 67.3022 116.894C67.3292 116.729 67.3807 116.601 67.4543 116.592C67.4838 116.592 67.4936 116.592 67.5181 116.645C67.5416 116.712 67.5565 116.783 67.5623 116.855C67.5834 117.011 67.5965 117.167 67.6015 117.324C67.6077 117.591 67.5921 117.858 67.5549 118.121C67.4998 118.368 67.4589 118.617 67.4322 118.869Z" fill="#263238"/>
<path d="M67.5574 118.826C67.577 118.806 67.4127 118.552 67.0275 118.33C66.7971 118.198 66.5481 118.112 66.2915 118.075C66.1411 118.053 65.989 118.047 65.8376 118.058C65.7419 118.055 65.6468 118.078 65.5611 118.126C65.4754 118.174 65.4018 118.245 65.347 118.332C65.3227 118.396 65.3148 118.465 65.3244 118.533C65.3339 118.601 65.3605 118.664 65.4009 118.716C65.4591 118.79 65.5269 118.854 65.6021 118.905C65.7325 119.002 65.8758 119.075 66.0265 119.122C66.2769 119.204 66.5416 119.215 66.7969 119.154C67.236 119.048 67.4249 118.798 67.4053 118.782C67.1972 118.859 66.985 118.923 66.7699 118.971C66.5409 119 66.3089 118.973 66.0903 118.891C65.9633 118.845 65.8427 118.778 65.7321 118.694C65.607 118.604 65.5236 118.491 65.5604 118.445C65.5972 118.398 65.737 118.308 65.8646 118.302C66.0017 118.288 66.1397 118.288 66.2768 118.302C66.5116 118.326 66.7422 118.388 66.9613 118.486C67.3342 118.669 67.5329 118.858 67.5574 118.826Z" fill="#263238"/>
<path d="M71.0853 101.747C71.0853 101.747 79.7481 98.1332 82.9374 98.6017C84.721 98.8757 87.508 100.383 87.7214 102.936C87.9348 105.49 87.3755 108.901 84.2867 110.565C81.198 112.228 68.8994 118.393 65.9775 119.333C63.0556 120.272 55.7643 122.505 55.7643 122.505L53.0043 113.71C53.0043 113.71 68.1094 107.868 68.9068 107.214C69.7041 106.559 71.7232 105.671 71.7232 105.671L71.0853 101.747Z" fill="#263238"/>
<path d="M40.9706 102.947L41.0319 102.928L41.2061 102.871C41.3582 102.818 41.5839 102.745 41.8808 102.665C42.2375 102.567 42.5998 102.497 42.9651 102.454C43.4499 102.405 43.9377 102.405 44.4224 102.454C45.0107 102.508 45.5921 102.632 46.1569 102.824C46.4711 102.928 46.7772 103.061 47.072 103.221L48.0141 103.736C49.3119 104.427 50.7569 105.137 52.3001 105.816C55.3864 107.186 58.35 107.855 60.4623 108.389C61.5222 108.663 62.3808 108.866 62.9696 109.025L63.6516 109.203L63.8283 109.249H63.8896L63.8307 109.227L63.6541 109.173C63.502 109.126 63.2738 109.055 62.9794 108.973C62.3906 108.805 61.5369 108.578 60.477 108.307C58.3672 107.759 55.4109 107.085 52.3344 105.709C50.7937 105.03 49.3487 104.325 48.0509 103.638L47.1039 103.142C46.8042 102.981 46.4932 102.849 46.1741 102.745C45.6043 102.554 45.0178 102.433 44.4249 102.383C43.9352 102.333 43.4425 102.333 42.9529 102.383C42.5854 102.431 42.2214 102.508 41.8636 102.613C41.5692 102.698 41.3435 102.777 41.1938 102.835L41.0221 102.906C41.0036 102.918 40.9863 102.931 40.9706 102.947Z" fill="#455A64"/>
<path d="M41.4244 101.67C41.4244 101.687 41.6894 101.635 42.1138 101.583C42.6654 101.518 43.2207 101.5 43.7747 101.531C44.33 101.563 44.882 101.645 45.4258 101.775C45.8429 101.873 46.098 101.955 46.1005 101.939C46.0461 101.906 45.9885 101.88 45.9288 101.862C45.7678 101.8 45.604 101.747 45.4381 101.703C44.3475 101.399 43.2144 101.334 42.1016 101.512C41.8906 101.544 41.7188 101.58 41.6109 101.613C41.547 101.624 41.4844 101.643 41.4244 101.67Z" fill="#455A64"/>
<path d="M74.731 104.306C74.731 104.323 74.9763 104.115 75.3958 103.827C76.4796 103.077 77.6955 102.598 78.9605 102.421C79.4512 102.356 79.7505 102.347 79.748 102.328C79.6771 102.32 79.6055 102.32 79.5346 102.328C79.3404 102.327 79.1464 102.337 78.9531 102.358C77.6697 102.497 76.4359 102.983 75.359 103.775C75.1554 103.928 74.9935 104.049 74.888 104.158C74.8309 104.201 74.7782 104.251 74.731 104.306Z" fill="#455A64"/>
<path d="M70.3836 117.45L70.3149 117.48L70.1187 117.573C69.9445 117.65 69.6918 117.784 69.3532 117.93C68.6786 118.228 67.6801 118.639 66.4092 119.108C63.8504 120.042 60.1704 121.231 55.7691 122.47L55.8207 122.5C54.9988 119.957 54.1033 117.149 53.1416 114.198L53.1146 114.264L56.4266 112.743L74.78 104.306C75.5283 103.424 76.2152 102.646 76.8604 102.016C77.4058 101.477 77.9882 100.987 78.6023 100.55C78.9887 100.278 79.3875 100.03 79.7971 99.8046L80.1185 99.6374L80.2264 99.5771L80.116 99.6292L79.7897 99.7881C79.3763 100.006 78.9742 100.249 78.5851 100.517C77.966 100.95 77.3786 101.438 76.8285 101.975C76.1784 102.602 75.4866 103.378 74.7359 104.257C70.2634 106.307 63.6959 109.315 56.3727 112.661L53.0557 114.184L53.014 114.203L53.0288 114.25C53.9856 117.201 54.8933 120.004 55.7152 122.549L55.7274 122.588H55.7667C60.168 121.338 63.8431 120.135 66.3994 119.187C67.6776 118.708 68.6737 118.291 69.3434 117.982C69.6795 117.834 69.9322 117.694 70.104 117.612L70.2978 117.51L70.3836 117.45Z" fill="#455A64"/>
<path d="M48.9685 70.9114C48.9685 70.9114 46.476 72.517 45.9706 74.4021C45.6615 75.5475 43.3357 90.1928 42.9677 93.0807C42.5997 95.9687 43.3749 98.1086 44.4789 99.0676C45.5829 100.027 48.9244 101.301 48.9244 101.301L53.6274 103.002L54.9743 99.1663L50.4994 91.9847L50.9312 87.1459L48.9685 70.9114Z" fill="#407BFF"/>
<path d="M53.8727 68.3822L55.4281 67.0999C55.4281 67.0999 57.4546 69.4152 59.7828 69.1412C62.111 68.8672 63.4898 66.8779 63.4898 66.8779L70.4327 68.4589C70.8988 68.563 71.7477 68.8918 72.5598 70.1878C73.4675 71.6346 77.7633 78.0462 77.7633 78.0462H80.7711C81.1779 78.0464 81.577 78.1705 81.9254 78.4051C82.2739 78.6397 82.5584 78.976 82.7485 79.3778C83.2612 80.4738 83.877 81.9315 83.8181 82.537C83.7151 83.5591 83.8917 86.373 82.665 87.2443C82.275 87.5183 80.879 88.3568 79.7995 88.302C78.2024 88.217 76.3477 87.2882 75.2805 86.4552C74.3752 85.7483 72.2727 83.307 71.4631 82.3452V82.3589L70.943 102.701L52.7466 102.131L48.9685 70.9112C48.9685 70.9112 53.6887 68.3822 53.8727 68.3822Z" fill="#407BFF"/>
<path d="M71.5269 73.832C71.5024 73.832 71.4558 76.3528 71.4214 79.4627C71.3871 82.5726 71.3822 85.0934 71.4092 85.0934C71.4362 85.0934 71.4828 82.5754 71.5147 79.4627C71.5465 76.3501 71.5539 73.832 71.5269 73.832Z" fill="#263238"/>
<path d="M46.7654 90.2749C46.7654 90.2749 46.9199 90.3023 47.1947 90.3598C47.5824 90.4464 47.9602 90.5815 48.3208 90.7626C48.8561 91.0304 49.3603 91.37 49.8222 91.7737C50.3895 92.2719 50.9188 92.8218 51.4046 93.4177C51.9247 94.0451 52.4007 94.6671 52.8472 95.2179C53.2381 95.7118 53.6516 96.1828 54.0861 96.629C54.38 96.9261 54.6914 97.2007 55.0184 97.451C55.1337 97.5441 55.2294 97.6044 55.2907 97.6482C55.3214 97.6721 55.3543 97.6923 55.3888 97.7085C55.3629 97.6783 55.3332 97.6524 55.3005 97.6318C55.2416 97.5797 55.1509 97.514 55.0405 97.4181C54.7225 97.1531 54.4186 96.8676 54.1303 96.5632C53.7647 96.1823 53.3526 95.6974 52.9036 95.1439C52.4547 94.5904 51.9885 93.9657 51.466 93.3355C50.976 92.7373 50.4408 92.1872 49.8664 91.6915C49.3973 91.2873 48.8846 90.9504 48.3404 90.6886C47.9737 90.5123 47.5889 90.3871 47.1947 90.316C47.0876 90.2955 46.9794 90.2818 46.8709 90.2749C46.8358 90.2707 46.8004 90.2707 46.7654 90.2749Z" fill="#263238"/>
<path d="M46.3533 88.8967C46.3533 88.9158 46.628 88.9597 47.0623 89.0939C48.1992 89.4433 49.2306 90.1286 50.048 91.0777C50.362 91.4394 50.5387 91.6915 50.5387 91.6805C50.5111 91.6134 50.4757 91.5507 50.4332 91.4942C50.3295 91.33 50.2164 91.1734 50.0946 91.0256C49.2932 90.0353 48.2434 89.3374 47.0819 89.0227C46.9077 88.9728 46.7307 88.9361 46.552 88.9131C46.4864 88.9001 46.4198 88.8946 46.3533 88.8967Z" fill="#263238"/>
<g opacity="0.3">
<path d="M80.224 85.3263C79.2598 85.6195 78.1019 84.0714 77.226 83.1014C76.7721 82.5973 76.2987 82.0602 76.1318 81.3697C76.0114 80.7888 76.0639 80.1799 76.2815 79.6353C76.4444 79.1445 76.6593 78.6771 76.9218 78.2434C76.8433 79.0791 76.6568 80.3614 76.9095 81.4108C77.1205 82.2849 77.6161 82.9836 78.1362 83.6439C78.6563 84.3043 79.3629 85.077 80.2166 85.3263" fill="black"/>
</g>
<path d="M76.1122 84.4415C76.1319 84.4415 76.019 84.0853 75.9282 83.5017C75.8774 83.16 75.8479 82.8149 75.8399 82.4687C75.836 82.0451 75.8623 81.6218 75.9184 81.2028C75.9801 80.7851 76.072 80.3737 76.1932 79.9725C76.2963 79.6453 76.4201 79.3267 76.5636 79.019C76.809 78.4957 77.0126 78.197 76.9979 78.197C76.9411 78.2568 76.8908 78.324 76.8482 78.397C76.7918 78.4762 76.7401 78.5595 76.6937 78.6464C76.6254 78.7577 76.5624 78.873 76.5048 78.9916C76.3519 79.2976 76.2206 79.6164 76.1122 79.9451C75.9843 80.3506 75.8883 80.7677 75.8252 81.1918C75.7689 81.6172 75.745 82.0471 75.754 82.4769C75.7658 82.8276 75.8028 83.1767 75.8645 83.5208C75.8865 83.6688 75.9209 83.7948 75.9479 83.9154C75.9696 84.0136 75.9958 84.1106 76.0264 84.2058C76.0496 84.2867 76.0783 84.3655 76.1122 84.4415Z" fill="#263238"/>
<path d="M62.7317 67.6781C62.7317 67.7055 62.9329 67.8453 63.1562 68.0672C63.3794 68.2891 63.5413 68.5001 63.5413 68.4809C63.463 68.2881 63.3498 68.1155 63.2088 67.974C63.0677 67.8325 62.902 67.7253 62.7219 67.6589L62.7317 67.6781Z" fill="#263238"/>
<path d="M60.8427 68.8945C60.823 68.9165 61.0046 69.1357 61.1518 69.459C61.299 69.7823 61.3554 70.0755 61.3848 70.0727C61.3955 69.8408 61.3433 69.6107 61.2352 69.4124C61.1555 69.1985 61.0184 69.0176 60.8427 68.8945Z" fill="#263238"/>
<path d="M57.5944 70.1688C57.68 69.9744 57.7498 69.7717 57.8029 69.5633C57.8839 69.3657 57.9455 69.1591 57.9869 68.9468C57.7573 69.3057 57.6214 69.7288 57.5944 70.1688Z" fill="#263238"/>
<path d="M55.5066 69.0673C55.5336 69.0673 55.6047 68.7193 55.8108 68.3439C56.0169 67.9685 56.2622 67.7329 56.2426 67.7083C56.0244 67.8419 55.8468 68.0451 55.7323 68.2919C55.5913 68.5204 55.5129 68.7898 55.5066 69.0673Z" fill="#263238"/>
<path d="M49.5131 75.6543C49.4886 75.6543 49.7952 78.4381 50.2025 81.8604C50.6097 85.2827 50.9557 88.0555 50.9826 88.0528C51.0096 88.0501 50.7005 85.269 50.2933 81.8467C49.886 78.4244 49.5401 75.6516 49.5131 75.6543Z" fill="#263238"/>
<path d="M76.7893 80.1533C76.7802 80.249 76.7802 80.3454 76.7893 80.441C76.795 80.5532 76.8073 80.6649 76.8261 80.7753C76.8384 80.8411 76.8482 80.9096 76.858 80.9836C76.8678 81.0575 76.8924 81.1315 76.912 81.211C76.9994 81.5884 77.1193 81.9554 77.2702 82.307C77.4577 82.7343 77.6812 83.1407 77.9375 83.5208C78.2001 83.8967 78.4988 84.2394 78.8281 84.5428C79.0991 84.7885 79.3997 84.9905 79.7211 85.1429C79.7898 85.1758 79.8535 85.2086 79.9173 85.2333L80.0989 85.2908L80.2584 85.3402C80.3074 85.3402 80.354 85.3539 80.3957 85.3593C80.4768 85.3745 80.5589 85.3827 80.6411 85.384C80.3309 85.3157 80.0276 85.2129 79.7358 85.0771C79.4262 84.9157 79.136 84.7113 78.8722 84.4688C78.5506 84.1663 78.2586 83.8265 78.0013 83.455C77.7487 83.0813 77.5262 82.6834 77.3364 82.2659C77.1861 81.9207 77.0614 81.5624 76.9635 81.1945C76.8188 80.5561 76.8139 80.1506 76.7893 80.1533Z" fill="#263238"/>
<g opacity="0.3">
<path d="M50.0995 103.405C49.3267 102.988 49.1525 101.871 49.074 100.917C48.8434 98.1222 48.612 95.3283 48.3797 92.5353C48.2718 91.2201 48.2203 89.7214 49.0495 88.7815C49.8076 87.9239 51.0122 87.8719 52.0892 87.8746C58.75 87.8965 64.6331 88.1157 71.2939 88.1486L70.9553 101.164L50.0995 103.405Z" fill="black"/>
</g>
<path d="M74.1642 90.146L73.4552 105.241C73.4414 105.521 73.3319 105.784 73.1494 105.977C72.9668 106.17 72.725 106.277 72.4739 106.276L50.9483 106.32C50.6963 106.321 50.4539 106.213 50.2712 106.019C50.0885 105.825 49.9796 105.56 49.967 105.279L49.1451 90.4392C49.1181 89.8255 49.5107 89.0035 50.07 88.9925H73.1731C73.3072 88.9908 73.4402 89.0198 73.5639 89.0778C73.6876 89.1358 73.7994 89.2215 73.8923 89.3296C73.9852 89.4377 74.0572 89.5659 74.104 89.7063C74.1508 89.8468 74.1712 89.9964 74.1642 90.146Z" fill="#E0E0E0"/>
<path d="M74.1643 90.146C74.1653 90.1278 74.1653 90.1095 74.1643 90.0912C74.1685 90.0347 74.1685 89.9779 74.1643 89.9213C74.1388 89.73 74.0683 89.5496 73.9602 89.3985C73.852 89.2474 73.71 89.1309 73.5485 89.061C73.3822 88.9932 73.205 88.9652 73.0284 88.9788H71.7208L63.3794 88.9623L51.0073 88.9486H50.129C49.9727 88.9407 49.818 88.9856 49.6849 89.0774C49.5547 89.1709 49.4428 89.293 49.3562 89.4364C49.1805 89.7228 49.0865 90.0619 49.0863 90.4091C49.1035 90.7461 49.1231 91.0858 49.1403 91.4256C49.2139 92.7956 49.2924 94.1656 49.3684 95.5822C49.5254 98.4071 49.6874 101.336 49.8591 104.326L49.891 104.874C49.9057 105.063 49.9033 105.243 49.9327 105.441C49.9673 105.632 50.0449 105.81 50.1582 105.959C50.2715 106.108 50.4168 106.221 50.5804 106.29C50.7426 106.353 50.9144 106.379 51.0858 106.367H52.5578H56.4218L63.7278 106.348L70.3395 106.331H71.8655H72.2384C72.3654 106.333 72.4924 106.327 72.6187 106.312C72.8679 106.274 73.0958 106.135 73.2591 105.921C73.4224 105.707 73.5097 105.434 73.5043 105.153C73.5166 104.879 73.5289 104.632 73.5411 104.375C73.5657 103.86 73.5877 103.358 73.6098 102.868C73.7889 98.9414 73.9337 95.763 74.0318 93.5518C74.0809 92.4558 74.1177 91.6037 74.1422 91.0228C74.1545 90.7351 74.1643 90.5159 74.1692 90.3652C74.1741 90.2145 74.1692 90.1405 74.1692 90.1405L74.1545 90.3652C74.1545 90.5159 74.1348 90.7351 74.1201 91.0228C74.0907 91.6037 74.0465 92.4531 73.9925 93.5518C73.8846 95.7438 73.73 98.925 73.5387 102.851C73.5166 103.342 73.4921 103.846 73.4675 104.358C73.4561 104.616 73.4438 104.876 73.4307 105.139C73.4335 105.399 73.3535 105.652 73.205 105.852C73.0518 106.052 72.8379 106.183 72.604 106.219C72.4831 106.229 72.3617 106.229 72.2409 106.219H70.3371H63.7253H56.4193H52.5553H51.0833C50.9238 106.231 50.7637 106.208 50.6123 106.15C50.4631 106.087 50.3307 105.983 50.2273 105.848C50.1239 105.712 50.053 105.549 50.021 105.375C49.994 105.205 49.994 105.008 49.9818 104.827L49.9499 104.279C49.7831 101.284 49.6211 98.3605 49.4592 95.5356C49.3807 94.1245 49.3022 92.7353 49.2139 91.379C49.1967 91.0393 49.1771 90.7022 49.1599 90.3652C49.1579 90.0396 49.2433 89.7208 49.4052 89.4501C49.4765 89.3133 49.579 89.2001 49.7023 89.1221C49.8256 89.0441 49.9652 89.0041 50.1069 89.0062H50.9852H63.3549L71.6962 88.9897H73.0039C73.1775 88.9734 73.3523 88.9987 73.5166 89.0637C73.6519 89.123 73.7729 89.2168 73.8699 89.3377C74.0062 89.4961 74.0968 89.6965 74.1299 89.9131C74.1451 89.99 74.1565 90.0678 74.1643 90.146Z" fill="#263238"/>
<path d="M60.217 97.514C60.217 97.7942 60.2914 98.068 60.4308 98.301C60.5702 98.534 60.7683 98.7155 61 98.8227C61.2318 98.93 61.4868 98.958 61.7329 98.9034C61.9789 98.8487 62.2049 98.7138 62.3823 98.5157C62.5597 98.3176 62.6805 98.0651 62.7294 97.7904C62.7784 97.5156 62.7532 97.2307 62.6572 96.9719C62.5612 96.713 62.3987 96.4918 62.1901 96.3362C61.9815 96.1805 61.7363 96.0974 61.4854 96.0974C61.1492 96.0981 60.827 96.2476 60.5893 96.5131C60.3515 96.7786 60.2177 97.1385 60.217 97.514Z" fill="white"/>
<path d="M60.2171 97.5139C60.2293 97.5139 60.2171 97.3879 60.276 97.1742C60.3507 96.8714 60.5139 96.6052 60.7396 96.4179C60.9219 96.2653 61.1386 96.1723 61.3655 96.1495C61.5924 96.1266 61.8205 96.1748 62.0242 96.2886C62.228 96.4023 62.3993 96.5772 62.5191 96.7937C62.6389 97.0101 62.7023 97.2595 62.7023 97.5139C62.7024 97.7148 62.6629 97.9131 62.5867 98.095C62.5105 98.277 62.3994 98.4379 62.2612 98.5665C62.1231 98.6952 61.9614 98.7883 61.7875 98.8394C61.6136 98.8904 61.4317 98.8981 61.2548 98.862C61.0662 98.8245 60.8881 98.7382 60.7347 98.6099C60.509 98.4226 60.3458 98.1564 60.2711 97.8537C60.2195 97.64 60.2244 97.5139 60.2122 97.5139C60.2084 97.5439 60.2084 97.5743 60.2122 97.6043C60.2127 97.6919 60.2218 97.7792 60.2392 97.8646C60.3038 98.1837 60.466 98.4676 60.6979 98.6675C60.8583 98.8059 61.0458 98.8999 61.245 98.9415C61.4745 98.9915 61.7118 98.9716 61.932 98.8839C62.1774 98.7877 62.3906 98.6099 62.5428 98.3743C62.6995 98.1382 62.7886 97.8548 62.7985 97.5611C62.8084 97.2675 62.7387 96.9774 62.5983 96.7288C62.458 96.4802 62.2537 96.2849 62.0122 96.1683C61.7707 96.0517 61.5033 96.0193 61.245 96.0754C61.0458 96.1169 60.8582 96.2108 60.6979 96.3494C60.4659 96.5502 60.3036 96.8351 60.2392 97.155C60.2216 97.2404 60.2126 97.3277 60.2122 97.4153C60.2093 97.4482 60.211 97.4815 60.2171 97.5139Z" fill="#263238"/>
<path d="M73.4404 91.823C73.4135 91.823 73.308 94.3575 73.1951 97.4866C73.0823 100.616 73.0258 103.156 73.0528 103.156C73.0798 103.156 73.1828 100.621 73.2981 97.4921C73.4134 94.363 73.465 91.823 73.4404 91.823Z" fill="#263238"/>
<path d="M79.9099 72.1307C80.0351 72.0101 79.4855 69.64 79.4855 69.64C79.4855 69.64 80.9453 66.9795 80.9845 66.1219C81.0238 65.2642 80.408 63.5024 80.408 63.5024L76.2177 62.2996C76.2177 62.2996 74.8733 65.0916 74.6034 66.078C74.3335 67.0644 75.072 70.4182 75.072 70.4182L75.781 72.1362C75.781 72.1362 77.9154 74.0185 79.9099 72.1307Z" fill="#FFBE9D"/>
<path d="M80.9747 66.634C81.1385 66.297 81.2859 65.9503 81.4163 65.5956C81.6813 64.8914 82.0075 64.2037 81.4163 63.8091C81.3244 63.7414 81.2205 63.6966 81.1117 63.6777C81.0029 63.6588 80.8918 63.6662 80.7858 63.6995C80.7858 63.6995 80.8766 63.1077 80.5601 62.8775C80.4684 62.8129 80.3643 62.7737 80.2563 62.7632C80.1483 62.7528 80.0397 62.7713 79.9394 62.8172C79.9394 62.8172 80.0375 61.9952 79.5837 61.6308C79.4124 61.505 79.2132 61.4348 79.0083 61.428C78.8034 61.4212 78.6009 61.4782 78.4232 61.5924C78.4232 61.5924 78.7839 57.9428 78.8158 57.7564C78.9286 57.0468 78.6956 56.4193 78.0626 56.5947C77.8295 56.6577 77.7019 56.9317 77.4296 58.1209C77.1573 59.31 76.7206 61.3376 76.7206 61.3376C76.7206 61.3376 75.9846 62.7652 75.6387 63.5296C75.2928 64.2941 74.6034 66.0669 74.547 66.5436C74.3973 67.752 75.0376 69.3521 75.0376 69.3521L79.4904 69.6261C79.4904 69.6261 80.8054 66.9793 80.9747 66.634Z" fill="#FFBE9D"/>
<path d="M80.6974 63.8557C80.5711 64.0288 80.4563 64.2119 80.354 64.4037L80.0007 65.0038C79.9271 65.1214 79.8631 65.2461 79.8093 65.3764C79.7466 65.524 79.7285 65.6904 79.7578 65.8504C79.7706 65.9344 79.8033 66.0129 79.8525 66.078C79.9017 66.143 79.9655 66.1922 80.0375 66.2203C80.1723 66.2576 80.3147 66.2381 80.4374 66.1655C80.5415 66.1069 80.6409 66.0381 80.7342 65.96C80.8225 65.8888 80.9035 65.823 80.9796 65.7573C81.1243 65.6312 81.2372 65.5244 81.3108 65.4477C81.3844 65.3709 81.4261 65.3244 81.4212 65.3189C81.4163 65.3134 81.2372 65.4641 80.9305 65.6997C80.7624 65.8415 80.5844 65.968 80.3981 66.0779C80.2943 66.1365 80.1752 66.1521 80.062 66.1217C80.0054 66.0993 79.9552 66.0603 79.9167 66.0087C79.8783 65.9571 79.8531 65.8948 79.8437 65.8285C79.8199 65.6897 79.8354 65.5461 79.8878 65.4175C79.939 65.2914 79.9997 65.1704 80.0694 65.0558L80.403 64.4448C80.5159 64.2581 80.6144 64.061 80.6974 63.8557Z" fill="#EB996E"/>
<path d="M77.0346 64.2913C77.0747 64.0297 77.0588 63.7611 76.988 63.5077C76.9481 63.2471 76.853 63.001 76.7108 62.7898C76.6862 62.8035 76.8114 63.1213 76.8972 63.5323C76.9831 63.9433 77.0174 64.2913 77.0346 64.2913Z" fill="#EB996E"/>
<path d="M75.2805 65.3574C75.6908 64.9124 76.2083 64.6106 76.7697 64.4888C77.3291 64.3691 77.9015 64.3451 78.4674 64.4175C78.9188 64.4614 79.4487 64.5929 79.6425 65.045C79.8364 65.4971 79.6008 66.1136 79.1985 66.3794C78.7759 66.6144 78.2981 66.6958 77.832 66.6123C77.3699 66.5271 76.9003 66.506 76.4336 66.5493" fill="#FFBE9D"/>
<path d="M76.4335 66.5491C76.4335 66.5491 76.5587 66.5491 76.7844 66.5491C77.1038 66.5645 77.4224 66.5984 77.7387 66.6505C77.9608 66.6819 78.1849 66.692 78.4085 66.6806C78.6695 66.6721 78.9257 66.6001 79.1592 66.4696C79.4215 66.3179 79.6211 66.0587 79.7161 65.7463C79.7675 65.5798 79.7785 65.4012 79.748 65.2284C79.7106 65.0512 79.6249 64.8913 79.5027 64.7708C79.2562 64.5555 78.9584 64.4259 78.6465 64.3982C78.3654 64.3621 78.0829 64.3429 77.8 64.3407C77.3194 64.3307 76.8406 64.4122 76.3845 64.5818C76.0767 64.6974 75.7889 64.8707 75.5332 65.0942C75.4654 65.155 75.4007 65.22 75.3394 65.2887C75.2976 65.338 75.278 65.3654 75.2805 65.3682C75.2829 65.3709 75.3737 65.2723 75.5553 65.1243C75.8145 64.9181 76.1008 64.7581 76.4041 64.6503C76.8562 64.4964 77.3275 64.4242 77.8 64.4366C78.0789 64.442 78.3573 64.463 78.6342 64.4996C78.927 64.5258 79.2066 64.6467 79.4389 64.8476C79.5471 64.9546 79.6233 65.0961 79.6572 65.2531C79.6844 65.4076 79.6742 65.5674 79.6278 65.7161C79.5408 66.0039 79.3581 66.2432 79.1175 66.3847C78.8958 66.5113 78.6523 66.5832 78.4036 66.5957C78.1843 66.6076 77.9645 66.6012 77.7461 66.5765C77.4273 66.5294 77.106 66.5065 76.7844 66.508C76.6973 66.5115 76.6105 66.5206 76.5243 66.5354C76.463 66.5354 76.4335 66.5436 76.4335 66.5491Z" fill="#EB996E"/>
<path d="M80.6656 63.9134C80.197 64.708 79.7824 65.5821 79.3874 66.426C79.2935 66.6833 79.1392 66.9076 78.9409 67.0754C78.7716 67.1904 78.3521 66.9795 78.1656 66.9082L79.4512 63.6394" fill="#FFBE9D"/>
<path d="M79.4511 63.6394C79.4072 63.7169 79.3695 63.7985 79.3383 63.8833L79.0537 64.5683C78.8084 65.1491 78.487 65.9657 78.1239 66.8863L78.1018 66.9384L78.1509 66.9575C78.2977 67.0232 78.4475 67.0799 78.5998 67.1274C78.6641 67.1455 78.7299 67.1565 78.7961 67.1603C78.8317 67.1624 78.8674 67.1577 78.9016 67.1466C78.9365 67.1373 78.9692 67.1195 78.9973 67.0945C79.101 67.011 79.1893 66.9059 79.2573 66.7849C79.3898 66.552 79.483 66.3191 79.5885 66.1054C79.7897 65.6697 79.9737 65.2834 80.1356 64.9573C80.2975 64.6313 80.43 64.3737 80.5257 64.1956C80.5781 64.1082 80.6249 64.0166 80.6655 63.9216C80.6004 64.0065 80.5429 64.0982 80.4938 64.1956C80.3908 64.3682 80.2485 64.6203 80.0792 64.9409C79.9099 65.2615 79.7186 65.6478 79.5125 66.0807C79.4045 66.2945 79.3064 66.5328 79.1813 66.7493C79.1164 66.8577 79.033 66.9508 78.9359 67.0233C78.8863 67.0522 78.8316 67.0686 78.7756 67.0714C78.7197 67.0743 78.6639 67.0635 78.6121 67.0397C78.4624 66.9927 78.315 66.9369 78.1705 66.8726L78.1975 66.9438C78.5606 66.0177 78.8771 65.1985 79.1003 64.6094L79.3579 63.9107C79.3963 63.8236 79.4275 63.7328 79.4511 63.6394Z" fill="#EB996E"/>
<path d="M79.7995 62.6666C79.3857 63.8247 78.9719 64.9828 78.5581 66.1409C78.4821 66.3927 78.3694 66.6288 78.2245 66.8396C78.1499 66.9429 78.0541 67.0246 77.9452 67.0775C77.8362 67.1305 77.7174 67.1532 77.5989 67.1437C77.4403 67.0974 77.3002 66.9932 77.2006 66.8478C77.1011 66.7024 77.0478 66.524 77.0493 66.3409C77.0592 65.9751 77.1378 65.6157 77.28 65.286C77.6524 64.2305 77.9502 63.1439 78.1705 62.0364" fill="#FFBE9D"/>
<path d="M78.1706 62.0364C78.1558 62.0693 78.1451 62.1043 78.1387 62.1405L78.0651 62.4474C78.0013 62.7214 77.9081 63.0995 77.778 63.5708C77.648 64.0421 77.4763 64.5983 77.2628 65.2148C77.1322 65.53 77.0445 65.8652 77.0028 66.2094C76.9911 66.3983 77.0241 66.5873 77.0985 66.7574C77.1715 66.9417 77.305 67.0877 77.4714 67.1657C77.556 67.1998 77.6462 67.2133 77.7359 67.2053C77.8257 67.1972 77.9128 67.1678 77.9915 67.1191C78.1413 67.028 78.2673 66.8948 78.357 66.7327C78.5063 66.4312 78.6319 66.1159 78.7324 65.7902C78.9458 65.1846 79.1372 64.6394 79.2991 64.1736L79.6745 63.0776C79.7137 62.957 79.7456 62.8584 79.7701 62.7789C79.7837 62.7447 79.7936 62.7088 79.7996 62.6721C79.7796 62.7021 79.7639 62.7354 79.753 62.7707C79.7235 62.8502 79.6843 62.9461 79.6401 63.0639L79.2427 64.138C79.0759 64.601 78.8771 65.1435 78.6588 65.7463C78.5575 66.0651 78.4328 66.3739 78.2859 66.6697C78.204 66.8155 78.09 66.9354 77.9547 67.0177C77.8878 67.0602 77.8136 67.0862 77.7369 67.0937C77.6603 67.1013 77.5831 67.0903 77.5106 67.0615C77.3669 66.9917 77.2515 66.8648 77.1868 66.7053C77.1187 66.5497 77.0891 66.3766 77.1009 66.2039C77.1377 65.8702 77.2204 65.5449 77.3463 65.2394C77.5572 64.6284 77.7192 64.0667 77.8369 63.5954C77.9547 63.1242 78.0455 62.7296 78.0994 62.4611C78.124 62.3241 78.1436 62.22 78.1559 62.1487C78.1654 62.1122 78.1703 62.0744 78.1706 62.0364Z" fill="#EB996E"/>
<path d="M82.6528 80.6246C82.5399 80.1643 79.7088 70.8127 79.7088 70.8127L75.0278 70.188L76.9414 78.2436C76.9414 78.2436 76.6446 80.2904 76.9414 81.5015C77.2383 82.7125 79.6401 86.0087 80.8668 85.2169C82.0934 84.425 82.7632 81.085 82.6528 80.6246Z" fill="#FFBE9D"/>
<path d="M76.9316 69.3604C77.0222 69.3729 77.1142 69.3597 77.1991 69.3221C77.4094 69.2489 77.6027 69.1247 77.7651 68.9585C77.9275 68.7922 78.0551 68.588 78.1387 68.3603C78.1787 68.2692 78.1981 68.1686 78.1951 68.0671C78.0781 68.3725 77.9118 68.6511 77.7044 68.8891C77.4756 69.099 77.2134 69.2589 76.9316 69.3604Z" fill="#EB996E"/>
</svg>
