<svg width="37" height="33" viewBox="0 0 37 33" fill="none" xmlns="http://www.w3.org/2000/svg">
<g clip-path="url(#clip0_404_21)">
<path d="M30.0625 0H13.875C12.6484 0 11.472 0.428802 10.6046 1.19208C9.73728 1.95535 9.25 2.99057 9.25 4.07C8.02337 4.07 6.84699 4.4988 5.97963 5.26208C5.11228 6.02535 4.625 7.06057 4.625 8.14V28.49C4.625 29.5694 5.11228 30.6047 5.97963 31.3679C6.84699 32.1312 8.02337 32.56 9.25 32.56H25.4375C26.6641 32.56 27.8405 32.1312 28.7079 31.3679C29.5752 30.6047 30.0625 29.5694 30.0625 28.49C31.2891 28.49 32.4655 28.0612 33.3329 27.2979C34.2002 26.5347 34.6875 25.4994 34.6875 24.42V4.07C34.6875 2.99057 34.2002 1.95535 33.3329 1.19208C32.4655 0.428802 31.2891 0 30.0625 0ZM30.0625 26.455V8.14C30.0625 7.06057 29.5752 6.02535 28.7079 5.26208C27.8405 4.4988 26.6641 4.07 25.4375 4.07H11.5625C11.5625 3.53028 11.8061 3.01267 12.2398 2.63104C12.6735 2.2494 13.2617 2.035 13.875 2.035H30.0625C30.6758 2.035 31.264 2.2494 31.6977 2.63104C32.1314 3.01267 32.375 3.53028 32.375 4.07V24.42C32.375 24.9597 32.1314 25.4773 31.6977 25.859C31.264 26.2406 30.6758 26.455 30.0625 26.455ZM6.9375 8.14C6.9375 7.60028 7.18114 7.08267 7.61482 6.70104C8.04849 6.3194 8.63669 6.105 9.25 6.105H25.4375C26.0508 6.105 26.639 6.3194 27.0727 6.70104C27.5064 7.08267 27.75 7.60028 27.75 8.14V28.49C27.75 29.0297 27.5064 29.5473 27.0727 29.929C26.639 30.3106 26.0508 30.525 25.4375 30.525H9.25C8.63669 30.525 8.04849 30.3106 7.61482 29.929C7.18114 29.5473 6.9375 29.0297 6.9375 28.49V8.14Z" fill="#0D0169"/>
</g>
<defs>
<clipPath id="clip0_404_21">
<rect width="37" height="32.56" fill="white"/>
</clipPath>
</defs>
</svg>
