<svg width="37" height="37" viewBox="0 0 37 37" fill="none" xmlns="http://www.w3.org/2000/svg">
<path d="M2.3125 4.625V11.5625H37V13.875H2.3125V34.6875H0V2.3125H37V4.625H2.3125ZM4.625 16.1875H6.9375V18.5H4.625V16.1875ZM9.25 16.1875H11.5625V18.5H9.25V16.1875ZM13.875 16.1875H16.1875V18.5H13.875V16.1875ZM18.5 16.1875H20.8125V18.5H18.5V16.1875ZM23.125 16.1875H25.4375V18.5H23.125V16.1875ZM27.75 16.1875H30.0625V18.5H27.75V16.1875ZM32.375 16.1875H34.6875V18.5H32.375V16.1875ZM4.625 25.4375H6.9375V27.75H4.625V25.4375ZM9.25 25.4375H11.5625V27.75H9.25V25.4375ZM13.875 25.4375H16.1875V27.75H13.875V25.4375ZM18.5 25.4375H20.8125V27.75H18.5V25.4375ZM23.125 25.4375H25.4375V27.75H23.125V25.4375ZM27.75 25.4375H30.0625V27.75H27.75V25.4375ZM32.375 25.4375H34.6875V27.75H32.375V25.4375ZM4.625 20.8125H6.9375V23.125H4.625V20.8125ZM9.25 20.8125H11.5625V23.125H9.25V20.8125ZM13.875 20.8125H16.1875V23.125H13.875V20.8125ZM18.5 20.8125H20.8125V23.125H18.5V20.8125ZM23.125 20.8125H25.4375V23.125H23.125V20.8125ZM27.75 20.8125H30.0625V23.125H27.75V20.8125ZM32.375 20.8125H34.6875V23.125H32.375V20.8125ZM4.625 30.0625H6.9375V32.375H4.625V30.0625ZM9.25 30.0625H11.5625V32.375H9.25V30.0625ZM13.875 30.0625H16.1875V32.375H13.875V30.0625ZM18.5 30.0625H20.8125V32.375H18.5V30.0625ZM23.125 30.0625H25.4375V32.375H23.125V30.0625Z" fill="#0D0169"/>
</svg>
