<svg width="37" height="36" viewBox="0 0 37 36" fill="none" xmlns="http://www.w3.org/2000/svg">
<path d="M27.75 27H27.5151C27.2381 25.6875 26.7503 24.4805 26.0518 23.3789C25.3532 22.2773 24.5041 21.3281 23.5044 20.5312C22.5047 19.7344 21.3786 19.1133 20.126 18.668C18.8734 18.2227 17.5605 18 16.1875 18C15.1276 18 14.1038 18.1348 13.1162 18.4043C12.1286 18.6738 11.2072 19.0488 10.3521 19.5293C9.49691 20.0098 8.72005 20.5957 8.02148 21.2871C7.32292 21.9785 6.7207 22.7402 6.21484 23.5723C5.70898 24.4043 5.31755 25.3008 5.04053 26.2617C4.76351 27.2227 4.625 28.2188 4.625 29.25H2.3125C2.3125 27.8438 2.52327 26.4902 2.94482 25.1895C3.36637 23.8887 3.97461 22.6875 4.76953 21.5859C5.56445 20.4844 6.50391 19.5059 7.58789 18.6504C8.67188 17.7949 9.90039 17.1211 11.2734 16.6289C9.91244 15.7617 8.85254 14.6719 8.09375 13.3594C7.33496 12.0469 6.94954 10.5938 6.9375 9C6.9375 7.75781 7.17839 6.5918 7.66016 5.50195C8.14193 4.41211 8.79834 3.45703 9.62939 2.63672C10.4604 1.81641 11.4421 1.17188 12.5742 0.703125C13.7064 0.234375 14.9108 0 16.1875 0C17.4642 0 18.6626 0.234375 19.7827 0.703125C20.9028 1.17188 21.8844 1.81055 22.7275 2.61914C23.5706 3.42773 24.2331 4.38281 24.7148 5.48438C25.1966 6.58594 25.4375 7.75781 25.4375 9C25.4375 9.77344 25.3411 10.5293 25.1484 11.2676C24.9557 12.0059 24.6667 12.7031 24.2812 13.3594C23.8958 14.0156 23.4442 14.6191 22.9263 15.1699C22.4084 15.7207 21.8001 16.207 21.1016 16.6289C22.4505 17.1328 23.6911 17.8242 24.8232 18.7031C25.9554 19.582 26.931 20.6133 27.75 21.7969V27ZM9.25 9C9.25 9.9375 9.43066 10.8105 9.79199 11.6191C10.1533 12.4277 10.6471 13.1426 11.2734 13.7637C11.8997 14.3848 12.6344 14.8711 13.4775 15.2227C14.3206 15.5742 15.224 15.75 16.1875 15.75C17.139 15.75 18.0363 15.5742 18.8794 15.2227C19.7225 14.8711 20.4572 14.3906 21.0835 13.7812C21.7098 13.1719 22.2096 12.457 22.583 11.6367C22.9564 10.8164 23.137 9.9375 23.125 9C23.125 8.07422 22.9443 7.20117 22.583 6.38086C22.2217 5.56055 21.7279 4.8457 21.1016 4.23633C20.4753 3.62695 19.7345 3.14062 18.8794 2.77734C18.0243 2.41406 17.127 2.23828 16.1875 2.25C15.224 2.25 14.3267 2.42578 13.4956 2.77734C12.6646 3.12891 11.9299 3.60938 11.2915 4.21875C10.6532 4.82812 10.1533 5.54883 9.79199 6.38086C9.43066 7.21289 9.25 8.08594 9.25 9ZM32.375 29.25H37V31.5H32.375V36H30.0625V31.5H25.4375V29.25H30.0625V24.75H32.375V29.25Z" fill="#0D0169"/>
</svg>
