<svg width="86" height="86" viewBox="0 0 86 86" fill="none" xmlns="http://www.w3.org/2000/svg">
<path d="M77.9375 2.01569H8.0625C6.47708 1.99956 4.95002 2.61302 3.81638 3.72147C2.68274 4.82992 2.03512 6.34281 2.01562 7.92819V78.0854C2.03864 79.6684 2.68781 81.1779 3.82107 82.2834C4.95432 83.389 6.47938 84.0006 8.0625 83.9844H77.9375C79.523 83.997 81.049 83.3815 82.1821 82.2723C83.3152 81.1632 83.9631 79.6507 83.9844 78.0652V7.90804C83.9561 6.32731 83.3051 4.82162 82.1728 3.71826C81.0405 2.6149 79.5184 2.00305 77.9375 2.01569Z" fill="#0076B2"/>
<path d="M14.9675 33.4844H27.1352V72.6345H14.9675V33.4844ZM21.0547 14C22.4503 14 23.8145 14.4139 24.9748 15.1894C26.135 15.9649 27.0393 17.0671 27.573 18.3565C28.1068 19.646 28.2461 21.0648 27.9733 22.4335C27.7006 23.8021 27.028 25.0591 26.0407 26.0455C25.0534 27.0318 23.7958 27.7032 22.4269 27.9746C21.058 28.2461 19.6393 28.1054 18.3503 27.5704C17.0614 27.0355 15.96 26.1302 15.1857 24.9692C14.4113 23.8082 13.9987 22.4435 14 21.048C14.0018 19.1781 14.7458 17.3855 16.0686 16.0639C17.3915 14.7423 19.1848 14 21.0547 14ZM34.7677 33.4844H46.4314V38.8594H46.5927C48.2186 35.7822 52.1827 32.537 58.1019 32.537C70.4241 32.5102 72.7084 40.6197 72.7084 51.1345V72.6345H60.5408V53.5869C60.5408 49.0517 60.4602 43.2131 54.2184 43.2131C47.9767 43.2131 46.9152 48.1581 46.9152 53.2912V72.6345H34.7677V33.4844Z" fill="white"/>
</svg>
