<svg width="55" height="46" viewBox="0 0 55 46" fill="none" xmlns="http://www.w3.org/2000/svg">
<g clip-path="url(#clip0_366_766)">
<path d="M50.3588 24.2513C50.1593 24.2523 49.9615 24.2207 49.7768 24.1584C49.5921 24.0962 49.4241 24.0044 49.2824 23.8884L27.6184 5.99452L5.95441 23.8884C5.66439 24.0934 5.29133 24.2006 4.90978 24.1884C4.52824 24.1762 4.1663 24.0457 3.89631 23.8228C3.62631 23.6 3.46814 23.3012 3.4534 22.9863C3.43866 22.6714 3.56844 22.3634 3.81681 22.1241L26.5572 3.35423C26.8412 3.12117 27.2255 2.99036 27.626 2.99036C28.0265 2.99036 28.4107 3.12117 28.6948 3.35423L51.4352 22.1241C51.6438 22.2997 51.785 22.5223 51.8413 22.7638C51.8976 23.0054 51.8663 23.2553 51.7514 23.4823C51.6366 23.7092 51.4432 23.9032 51.1955 24.04C50.9478 24.1768 50.6568 24.2503 50.3588 24.2513Z" fill="white"/>
<path d="M27.6184 10.224L9.42612 25.2899V40.5185C9.42612 41.1823 9.74556 41.8188 10.3142 42.2882C10.8828 42.7575 11.654 43.0212 12.4582 43.0212H23.0703V30.5079H32.1665V43.0212H42.7787C43.5828 43.0212 44.354 42.7575 44.9226 42.2882C45.4913 41.8188 45.8107 41.1823 45.8107 40.5185V25.2023L27.6184 10.224Z" fill="white"/>
</g>
<defs>
<clipPath id="clip0_366_766">
<rect width="54.5769" height="45.0476" fill="white" transform="translate(0.329956 0.476196)"/>
</clipPath>
</defs>
</svg>
