<svg width="53" height="52" viewBox="0 0 53 52" fill="none" xmlns="http://www.w3.org/2000/svg">
<path d="M9.57353 39C9.57353 36.7015 10.4866 34.4971 12.1119 32.8718C13.7373 31.2465 15.9417 30.3334 18.2402 30.3334H35.5735C37.8721 30.3334 40.0765 31.2465 41.7018 32.8718C43.3271 34.4971 44.2402 36.7015 44.2402 39C44.2402 40.1493 43.7837 41.2515 42.971 42.0642C42.1583 42.8768 41.0561 43.3334 39.9069 43.3334H13.9069C12.7576 43.3334 11.6554 42.8768 10.8427 42.0642C10.0301 41.2515 9.57353 40.1493 9.57353 39Z" stroke="#0D0169" stroke-width="3.17" stroke-linejoin="round"/>
<path d="M26.9069 21.6667C30.4967 21.6667 33.4069 18.7565 33.4069 15.1667C33.4069 11.5768 30.4967 8.66669 26.9069 8.66669C23.317 8.66669 20.4069 11.5768 20.4069 15.1667C20.4069 18.7565 23.317 21.6667 26.9069 21.6667Z" stroke="#0D0169" stroke-width="3.17"/>
</svg>
