<svg width="65" height="52" viewBox="0 0 65 52" fill="none" xmlns="http://www.w3.org/2000/svg">
<path d="M8.2402 15.5761V6.20748C8.2402 5.98648 8.2402 5.95831 8.51577 5.95831H29.1759C29.4827 5.95831 29.5114 5.95831 29.5114 6.23565V24.9166C29.5114 25.194 29.5114 25.194 29.1759 25.194H8.51577C8.27135 25.194 8.2402 25.194 8.2402 24.9426V15.5761ZM18.877 46.0416H8.51577C8.27135 46.0416 8.2402 46.0416 8.2402 45.7903V27.2783C8.2402 27.001 8.2402 27.001 8.54692 27.001H29.2382C29.4827 27.001 29.5138 27.001 29.5138 27.2501V45.8185C29.5138 46.0135 29.5138 46.0416 29.2359 46.0416H18.877ZM52.5702 15.5761V24.9145C52.5702 25.1658 52.5702 25.1658 52.2922 25.1658H31.7878C31.5434 25.1658 31.4811 25.1658 31.4811 24.9166V6.20748C31.4811 6.01248 31.4811 5.98648 31.7567 5.98648H52.0766C52.5702 5.98648 52.5702 5.98648 52.5702 6.43065V15.5761ZM31.5722 36.5083V27.2501C31.5722 27.0551 31.5722 27.001 31.819 27.0551H52.4768C52.5391 27.0551 52.4768 27.2501 52.4768 27.3628V45.8185C52.4838 45.8414 52.4837 45.8657 52.4765 45.8886C52.4693 45.9116 52.4553 45.9323 52.436 45.9485C52.4181 45.9659 52.3952 45.9786 52.3698 45.9851C52.3445 45.9916 52.3176 45.9917 52.2922 45.9853H31.6992C31.6992 45.9853 31.4835 45.9853 31.5147 45.7903V36.5083H31.5722Z" fill="white"/>
</svg>
