<svg width="38" height="33" viewBox="0 0 38 33" fill="none" xmlns="http://www.w3.org/2000/svg">
<g clip-path="url(#clip0_1126_57)">
<rect width="38" height="33" fill="white"/>
<path d="M35.625 3.08992L26.1167 3.08995V1.03467C26.1167 0.464902 25.5853 0.00341797 24.9292 0.00341797C24.2731 0.00341797 23.7417 0.464902 23.7417 1.03467V3.08943H14.2417V1.03467C14.2417 0.464902 13.7103 0.00341797 13.0542 0.00341797C12.3981 0.00341797 11.8667 0.464902 11.8667 1.03467V3.08943H2.375C1.06341 3.08943 0 4.01292 0 5.15193V30.9332C0 32.0722 1.06341 32.9957 2.375 32.9957H35.625C36.9366 32.9957 38 32.0722 38 30.9332V5.15193C38 4.0134 36.9366 3.08992 35.625 3.08992ZM35.625 30.9332H2.375V5.15193H11.8667V6.19092C11.8667 6.76065 12.3981 7.22217 13.0542 7.22217C13.7103 7.22217 14.2417 6.76065 14.2417 6.19092V5.15245H23.7417V6.19143C23.7417 6.7612 24.2731 7.22268 24.9292 7.22268C25.5853 7.22268 26.1167 6.7612 26.1167 6.19143V5.15245H35.625V30.9332ZM27.3125 16.4962H29.6875C30.343 16.4962 30.875 16.0342 30.875 15.4649V13.4024C30.875 12.8332 30.343 12.3712 29.6875 12.3712H27.3125C26.657 12.3712 26.125 12.8332 26.125 13.4024V15.4649C26.125 16.0342 26.657 16.4962 27.3125 16.4962ZM27.3125 24.7456H29.6875C30.343 24.7456 30.875 24.2842 30.875 23.7144V21.6519C30.875 21.0826 30.343 20.6206 29.6875 20.6206H27.3125C26.657 20.6206 26.125 21.0826 26.125 21.6519V23.7144C26.125 24.2847 26.657 24.7456 27.3125 24.7456ZM20.1875 20.6206H17.8125C17.157 20.6206 16.625 21.0826 16.625 21.6519V23.7144C16.625 24.2842 17.157 24.7456 17.8125 24.7456H20.1875C20.843 24.7456 21.375 24.2842 21.375 23.7144V21.6519C21.375 21.0832 20.843 20.6206 20.1875 20.6206ZM20.1875 12.3712H17.8125C17.157 12.3712 16.625 12.8332 16.625 13.4024V15.4649C16.625 16.0342 17.157 16.4962 17.8125 16.4962H20.1875C20.843 16.4962 21.375 16.0342 21.375 15.4649V13.4024C21.375 12.8326 20.843 12.3712 20.1875 12.3712ZM10.6875 12.3712H8.3125C7.657 12.3712 7.125 12.8332 7.125 13.4024V15.4649C7.125 16.0342 7.657 16.4962 8.3125 16.4962H10.6875C11.343 16.4962 11.875 16.0342 11.875 15.4649V13.4024C11.875 12.8326 11.343 12.3712 10.6875 12.3712ZM10.6875 20.6206H8.3125C7.657 20.6206 7.125 21.0826 7.125 21.6519V23.7144C7.125 24.2842 7.657 24.7456 8.3125 24.7456H10.6875C11.343 24.7456 11.875 24.2842 11.875 23.7144V21.6519C11.875 21.0832 11.343 20.6206 10.6875 20.6206Z" fill="black"/>
</g>
<defs>
<clipPath id="clip0_1126_57">
<rect width="38" height="33" fill="white"/>
</clipPath>
</defs>
</svg>
