<svg width="37" height="39" viewBox="0 0 37 39" fill="none" xmlns="http://www.w3.org/2000/svg">
<path fill-rule="evenodd" clip-rule="evenodd" d="M9.66787 3.43042C8.41912 3.60259 7.75929 3.91932 7.28754 4.40497C6.81733 4.89225 6.51054 5.57444 6.3425 6.86247C6.16983 8.18949 6.16675 9.94694 6.16675 12.4662V26.386C6.77721 25.9469 7.45454 25.6211 8.16937 25.4228C8.98337 25.1971 9.93304 25.1971 11.3252 25.1987H30.8334V12.4678C30.8334 9.94694 30.8303 8.18949 30.6577 6.86247C30.4896 5.57444 30.1828 4.89225 29.7126 4.40497C29.2409 3.91932 28.581 3.60259 27.3323 3.43042C26.0465 3.25175 24.3445 3.2485 21.9025 3.2485H15.0976C12.6556 3.2485 10.9536 3.25175 9.66787 3.43042ZM10.4202 10.712C10.4202 9.98429 10.9906 9.39469 11.6952 9.39469H25.305C25.6395 9.39165 25.9615 9.52842 26.2005 9.77501C26.4394 10.0216 26.5759 10.3579 26.58 10.7103C26.5763 11.063 26.44 11.3998 26.201 11.6467C25.962 11.8937 25.6398 12.0306 25.305 12.0276H11.6952C11.3607 12.0306 11.0387 11.8939 10.7997 11.6473C10.5607 11.4007 10.4243 11.0644 10.4202 10.712ZM11.6952 15.5409C11.3607 15.5378 11.0387 15.6746 10.7997 15.9212C10.5607 16.1678 10.4243 16.5041 10.4202 16.8565C10.4202 17.5842 10.9906 18.1738 11.6952 18.1738H20.2005C20.5353 18.1773 20.8577 18.0407 21.097 17.794C21.3363 17.5474 21.473 17.2108 21.477 16.8581C21.4734 16.5052 21.3369 16.1682 21.0975 15.9212C20.8582 15.6742 20.5356 15.5374 20.2005 15.5409H11.6952Z" fill="#0D0169"/>
<path d="M11.5208 27.8316H30.8333C30.8287 29.667 30.8009 31.0379 30.6591 32.1197C30.4911 33.4077 30.1843 34.0899 29.7141 34.5772C29.2423 35.0628 28.5825 35.3796 27.3337 35.5517C26.048 35.7304 24.346 35.7336 21.904 35.7336H15.0975C12.6555 35.7336 10.9535 35.7304 9.66777 35.5533C8.41902 35.3796 7.75918 35.0628 7.28743 34.5772C6.81722 34.0899 6.51043 33.4077 6.34239 32.1197C6.27918 31.6324 6.23756 31.085 6.21289 30.4629C6.4242 29.8545 6.77276 29.3094 7.22852 28.8745C7.68429 28.4396 8.23359 28.1279 8.8291 27.9664C9.27618 27.843 9.85739 27.8316 11.5208 27.8316Z" fill="#0D0169"/>
</svg>
