<svg width="31" height="40" viewBox="0 0 31 40" fill="none" xmlns="http://www.w3.org/2000/svg">
<path d="M21.9584 4.09339C22.9155 4.32839 23.4838 4.58839 23.9734 5.36839C24.5895 6.34506 24.5572 7.40006 24.4913 9.51006C24.2588 17.0984 22.9413 26.6667 15.5013 26.6667C8.06131 26.6667 6.74252 17.1001 6.50744 9.51006C6.44286 7.40006 6.41056 6.34339 7.02411 5.36839C7.63894 4.39173 8.3739 4.23173 9.84511 3.91173C11.7144 3.51663 13.6059 3.32318 15.5 3.33339C16.4283 3.33561 17.2894 3.37339 18.0834 3.44673" stroke="#FFCD29" stroke-width="1.625" stroke-linecap="round"/>
<path d="M24.5417 8.3335L25.7675 8.86016C27.0462 9.41016 27.6856 9.68516 28.0512 10.3402C28.4167 10.9952 28.4167 11.8668 28.4167 13.6035V13.7252C28.4167 15.1585 28.4167 15.8768 28.1493 16.4635C27.882 17.0502 27.395 17.3985 26.4237 18.0968L22.6042 20.8335M6.45837 8.3335L5.23258 8.86016C3.95383 9.41016 3.31446 9.68516 2.94892 10.3402C2.58337 10.9952 2.58337 11.8668 2.58337 13.6035V13.7252C2.58337 15.1585 2.58337 15.8768 2.85075 16.4635C3.11812 17.0502 3.60508 17.3985 4.57642 18.0968L8.39587 20.8335" stroke="#FFCD29" stroke-width="1.625"/>
<path d="M15.5 28.3335V31.6668" stroke="#FFCD29" stroke-width="1.625" stroke-linecap="round"/>
<path d="M20.0209 36.6667H10.9792L11.4184 33.84C11.4769 33.4623 11.635 33.1224 11.8658 32.8781C12.0965 32.6339 12.3858 32.5002 12.6842 32.5H18.3159C18.6144 32.5002 18.9036 32.6339 19.1344 32.8781C19.3652 33.1224 19.5232 33.4623 19.5817 33.84L20.0209 36.6667Z" stroke="#FFCD29" stroke-width="1.625" stroke-linecap="round" stroke-linejoin="round"/>
<path d="M23.25 36.6667H7.75" stroke="#FFCD29" stroke-width="1.625" stroke-linecap="round"/>
</svg>
