<svg width="36" height="30" viewBox="0 0 36 30" fill="none" xmlns="http://www.w3.org/2000/svg">
<path d="M33.75 2.80591L24.7421 2.80594V0.9375C24.7421 0.419531 24.2387 0 23.6171 0C22.9956 0 22.4921 0.419531 22.4921 0.9375V2.80547H13.4921V0.9375C13.4921 0.419531 12.9887 0 12.3671 0C11.7456 0 11.2421 0.419531 11.2421 0.9375V2.80547H2.25C1.00744 2.80547 0 3.645 0 4.68047V28.118C0 29.1534 1.00744 29.993 2.25 29.993H33.75C34.9926 29.993 36 29.1534 36 28.118V4.68047C36 3.64544 34.9926 2.80591 33.75 2.80591ZM33.75 28.118H2.25V4.68047H11.2421V5.625C11.2421 6.14294 11.7456 6.5625 12.3671 6.5625C12.9887 6.5625 13.4921 6.14294 13.4921 5.625V4.68094H22.4921V5.62547C22.4921 6.14344 22.9956 6.56297 23.6171 6.56297C24.2387 6.56297 24.7421 6.14344 24.7421 5.62547V4.68094H33.75V28.118ZM25.875 14.9934H28.125C28.746 14.9934 29.25 14.5734 29.25 14.0559V12.1809C29.25 11.6634 28.746 11.2434 28.125 11.2434H25.875C25.254 11.2434 24.75 11.6634 24.75 12.1809V14.0559C24.75 14.5734 25.254 14.9934 25.875 14.9934ZM25.875 22.4929H28.125C28.746 22.4929 29.25 22.0734 29.25 21.5554V19.6804C29.25 19.1629 28.746 18.7429 28.125 18.7429H25.875C25.254 18.7429 24.75 19.1629 24.75 19.6804V21.5554C24.75 22.0739 25.254 22.4929 25.875 22.4929ZM19.125 18.7429H16.875C16.254 18.7429 15.75 19.1629 15.75 19.6804V21.5554C15.75 22.0734 16.254 22.4929 16.875 22.4929H19.125C19.746 22.4929 20.25 22.0734 20.25 21.5554V19.6804C20.25 19.1634 19.746 18.7429 19.125 18.7429ZM19.125 11.2434H16.875C16.254 11.2434 15.75 11.6634 15.75 12.1809V14.0559C15.75 14.5734 16.254 14.9934 16.875 14.9934H19.125C19.746 14.9934 20.25 14.5734 20.25 14.0559V12.1809C20.25 11.6629 19.746 11.2434 19.125 11.2434ZM10.125 11.2434H7.875C7.254 11.2434 6.75 11.6634 6.75 12.1809V14.0559C6.75 14.5734 7.254 14.9934 7.875 14.9934H10.125C10.746 14.9934 11.25 14.5734 11.25 14.0559V12.1809C11.25 11.6629 10.746 11.2434 10.125 11.2434ZM10.125 18.7429H7.875C7.254 18.7429 6.75 19.1629 6.75 19.6804V21.5554C6.75 22.0734 7.254 22.4929 7.875 22.4929H10.125C10.746 22.4929 11.25 22.0734 11.25 21.5554V19.6804C11.25 19.1634 10.746 18.7429 10.125 18.7429Z" fill="black"/>
</svg>
