<svg width="37" height="37" viewBox="0 0 37 37" fill="none" xmlns="http://www.w3.org/2000/svg">
<g clip-path="url(#clip0_404_30)">
<path d="M14.0528 -2.23238e-06C13.8463 0.0307119 13.649 0.106504 13.475 0.221998C13.475 0.221998 11.6748 1.35477 9.73945 2.58004C7.80407 3.80388 5.65095 5.15296 5.15857 5.42619L5.06891 5.46888C3.28153 6.57177 2.91011 8.37338 2.84607 9.38377C2.8418 9.43073 2.84607 9.46915 2.84607 9.51896C2.83041 9.8975 2.84607 10.1408 2.84607 10.1408V28.7305C2.84607 31.4315 5.99534 32.7308 8.9838 32.7308C9.97995 32.7308 10.9761 32.57 11.83 32.2853C12.3992 32.0007 12.8076 31.4315 12.8076 30.8623V15.92C12.8076 12.6469 13.5191 11.11 15.6538 9.82919C16.223 9.54457 22.1914 5.42477 22.1914 5.42477C22.476 5.14015 22.7691 4.56238 22.7691 4.13546V4.00169C22.7691 3.43246 22.4845 2.997 22.0576 2.71238C21.6307 2.42777 21.0615 2.42777 20.6345 2.71238C20.4922 2.85469 11.8115 8.69927 9.96145 9.69542C8.11145 10.8339 6.38526 11.1085 5.95834 10.5393C5.82599 10.407 5.71072 10.0014 5.69222 9.60577V9.51611C5.69365 9.12904 5.79326 8.40042 6.58165 7.91515C7.38141 7.46973 9.36661 6.20177 11.2963 4.98077C12.1117 4.46419 12.2128 4.40869 12.8517 4.00169C12.9358 4.34934 13.1478 4.65257 13.4454 4.85101C13.7429 5.04945 14.1043 5.12856 14.4576 5.07258C14.8109 5.0166 15.1301 4.82964 15.3518 4.54893C15.5734 4.26821 15.6812 3.91431 15.6538 3.55769V1.42307C15.6554 1.22024 15.6136 1.0194 15.5312 0.834034C15.4488 0.648666 15.3278 0.483049 15.1762 0.348287C15.0246 0.213524 14.8459 0.11273 14.6521 0.0526605C14.4584 -0.00740859 14.2541 -0.0253641 14.0528 -2.23238e-06ZM25.4374 4.98077C25.2111 5.0184 24.9973 5.11019 24.8141 5.24831C24.8141 5.24831 17.6503 10.0683 16.4094 10.8951L16.3653 10.9406C15.335 11.7133 14.7245 12.6327 14.4527 13.4737C14.3012 13.9484 14.2263 14.4441 14.2307 14.9423V15.3877C14.2286 15.4318 14.2286 15.476 14.2307 15.5201V32.7308C14.2307 35.4346 17.3444 37 20.1905 37C21.4713 37 22.6268 36.7239 23.4807 36.1547C25.1884 35.1585 33.4422 28.7291 33.4422 28.7291C33.8691 28.4445 34.1538 28.0431 34.1538 27.6162V9.11623C34.1538 8.40469 33.8777 7.97777 33.3085 7.69315C32.8815 7.40854 32.18 7.54231 31.753 7.82692C29.4761 9.53461 23.3469 14.356 21.9238 15.2098C19.9315 16.3483 18.0545 16.6329 17.343 15.9214C17.0583 15.6368 17.0768 15.3692 17.0768 14.9423C17.0844 14.6956 17.1143 14.4879 17.1665 14.319C17.2462 14.0714 17.4084 13.7668 18.0104 13.2972C18.0388 13.2745 18.0246 13.2759 18.0545 13.2531C19.0834 12.5658 22.2298 10.4212 24.2819 9.02657C24.3981 9.33847 24.62 9.59974 24.909 9.76495C25.198 9.93015 25.5357 9.98884 25.8635 9.9308C26.1912 9.87277 26.4883 9.70167 26.7029 9.44728C26.9176 9.1929 27.0363 8.87131 27.0384 8.53846V6.40384C27.04 6.20101 26.9982 6.00017 26.9158 5.8148C26.8334 5.62944 26.7124 5.46382 26.5608 5.32906C26.4092 5.19429 26.2305 5.0935 26.0368 5.03343C25.843 4.97336 25.6387 4.95541 25.4374 4.98077ZM31.3076 15.3877V18.2339L24.1922 23.7469V20.9007L31.3076 15.3877Z" fill="#0D0169"/>
</g>
<defs>
<clipPath id="clip0_404_30">
<rect width="37" height="37" fill="white"/>
</clipPath>
</defs>
</svg>
